<svg width="420" height="409" viewBox="0 0 420 409" fill="none" xmlns="http://www.w3.org/2000/svg">
<g clip-path="url(#clip0)">
<path d="M386.217 278.79C347.64 369.624 244.88 420.509 155.766 406.783C141.266 404.549 101.512 397.896 66.3149 366.508C-1.43885 306.084 -15.9291 186.435 38.7279 102.117C78.5075 40.7481 149.818 5.9597 217.576 7.70087C232.172 8.07627 288.107 10.3857 337.263 50.919C344.483 56.8729 360.408 71.0199 374.759 93.4638C408.462 146.166 411.359 219.594 386.217 278.79Z" fill="url(#paint0_linear)"/>
<path d="M45.9804 2.04791C45.605 0.47326 47.4952 -0.647108 48.712 0.420674C61.0725 11.2621 90.9967 43.9689 85.8229 103.077C79.3329 177.237 95.633 203.663 115.341 219.45C115.341 219.45 88.7794 212.613 71.3048 185.831C28.3993 120.071 52.6574 30.0498 45.9804 2.04791Z" fill="url(#paint1_linear)"/>
<path d="M55.8796 24.8058C57.6573 32.9771 59.2729 41.179 60.586 49.4276C61.943 57.669 63.0488 65.9468 63.8946 74.2466C64.7096 82.5493 65.3684 90.8666 65.6722 99.2C66.0141 107.53 65.998 115.867 65.9527 124.237C65.9542 132.602 65.9074 141.029 66.724 149.487C67.5303 157.927 69.3576 166.407 72.6808 174.301C73.5104 176.269 74.381 178.229 75.3568 180.118C76.2989 182.025 77.3244 183.892 78.3848 185.74C80.5219 189.425 82.9087 192.976 85.5467 196.333C90.8418 203.035 97.1535 208.924 104.052 213.857C104.778 214.376 105.788 214.208 106.308 213.482C106.818 212.769 106.664 211.783 105.972 211.256L105.967 211.251C104.323 210.004 102.695 208.74 101.13 207.407C100.336 206.752 99.5725 206.064 98.7968 205.392C98.0475 204.691 97.2704 204.018 96.5444 203.293C93.5894 200.446 90.8374 197.396 88.3235 194.158C83.2709 187.712 79.1561 180.478 75.9688 172.943C74.4175 169.155 73.1482 165.261 72.1812 161.282C71.2186 157.301 70.5598 153.241 70.1333 149.14C69.2788 140.934 69.2554 132.592 69.194 124.228C69.1225 115.861 68.9925 107.454 68.5163 99.0656C68.2898 94.8719 67.9875 90.6811 67.6106 86.4991C67.4339 84.4073 67.2177 82.3185 67.0044 80.2297C66.7707 78.1438 66.5268 76.0579 66.2653 73.9764C65.2034 65.6489 63.8887 57.3564 62.3141 49.118C60.7 40.8868 58.8668 32.7024 56.7225 24.6013C56.6611 24.3691 56.4245 24.2318 56.1922 24.2931C55.9673 24.353 55.8314 24.5809 55.8796 24.8058Z" fill="white"/>
<path d="M68.36 242.34C67.6121 245.228 64.1575 246.412 61.7707 244.623C48.5995 234.75 13.8841 203.467 11.6595 146.686C9.77807 98.7385 4.20252 72.9174 0.858947 61.3705C0.151962 58.9282 2.9726 57.0044 4.99131 58.5484C27.2657 75.5891 95.4782 137.697 68.36 242.34Z" fill="url(#paint2_linear)"/>
<path d="M64.3402 242.741C64.2832 242.788 64.2204 242.829 64.1518 242.866C63.5835 243.166 62.878 242.95 62.5771 242.381C62.2353 241.736 28.3949 177.171 22.7697 110.62C22.7157 109.98 23.1919 109.416 23.8317 109.361C24.4729 109.307 25.0367 109.783 25.0908 110.424C30.6751 176.491 64.2964 240.65 64.6352 241.291C64.9011 241.792 64.7653 242.398 64.3402 242.741Z" fill="white"/>
<path d="M28.7322 381.432C28.7322 385.031 31.6799 387.974 35.2821 387.974H389.454C393.056 387.974 396.004 385.03 396.004 381.432L398.952 177.899C398.952 174.3 394.711 167.275 386.942 167.802L40.805 158.847C36.2856 158.73 31.9151 160.47 28.7147 163.66C25.5143 166.85 23.7629 171.212 23.8695 175.727L28.7322 381.432Z" fill="url(#paint3_linear)"/>
<path d="M35.1988 375.154C35.1988 378.562 37.9873 381.35 41.3952 381.35H380.913C384.321 381.35 387.11 378.562 387.11 375.154L389.891 190.385C389.564 179.266 379.815 175.27 373.906 175.506L42.1664 166.606C38.9908 166.521 35.9204 167.744 33.6724 169.988C31.4229 172.231 30.1871 175.3 30.266 178.476L35.1988 375.154Z" fill="url(#paint4_linear)"/>
<g opacity="0.67">
<path opacity="0.67" d="M383.44 287.376C383.436 287.376 383.432 287.376 383.427 287.376C382.926 287.369 382.524 286.957 382.533 286.455L382.752 271.471C382.76 270.974 383.164 270.577 383.659 270.577C383.664 270.577 383.668 270.577 383.673 270.577C384.174 270.584 384.575 270.996 384.567 271.499L384.347 286.483C384.34 286.978 383.936 287.376 383.44 287.376Z" fill="#91B3FA"/>
<path opacity="0.67" d="M383.979 250.656C383.979 250.656 383.971 250.656 383.966 250.656C383.465 250.648 383.064 250.235 383.072 249.734L383.915 192.342C383.899 188.933 382.865 186.212 380.839 184.27C377.059 180.648 371.056 180.833 370.804 180.845L264.772 178.001C264.271 177.988 263.875 177.57 263.888 177.069C263.901 176.568 264.287 176.142 264.82 176.187L370.789 179.031C371.448 178.991 377.839 178.882 382.095 182.959C384.489 185.254 385.712 188.413 385.731 192.351L384.888 249.76C384.881 250.258 384.475 250.656 383.979 250.656Z" fill="#91B3FA"/>
</g>
<path d="M0.825304 404.87H416.729C417.183 404.87 417.554 404.499 417.554 404.045V387.814C417.554 387.359 417.183 386.988 416.729 386.988H0.825304C0.371021 386.988 0 387.359 0 387.814V404.045C0 404.499 0.371021 404.87 0.825304 404.87Z" fill="url(#paint5_linear)"/>
<g opacity="0.3">
<path opacity="0.3" d="M363.656 66.9445C362.838 66.9109 362.201 66.22 362.235 65.402C362.301 63.8127 362.298 62.1957 362.226 60.5977C362.19 59.7899 362.809 59.1034 363.612 59.0522C363.623 59.0522 363.631 59.0508 363.642 59.0508C364.46 59.0143 365.152 59.6482 365.189 60.4662C365.263 62.1475 365.266 63.8492 365.197 65.5232C365.167 66.2886 364.559 66.8948 363.811 66.9416C363.761 66.9459 363.709 66.9474 363.656 66.9445ZM361.348 52.8457C361.061 51.2725 360.703 49.6978 360.283 48.1626C360.069 47.3738 360.533 46.5573 361.324 46.3426C362.117 46.1293 362.929 46.5938 363.144 47.3841C363.583 48.9996 363.96 50.6575 364.264 52.311C364.411 53.1159 363.878 53.8886 363.072 54.0361C363.014 54.0464 362.955 54.0537 362.897 54.0581C362.159 54.1048 361.486 53.5921 361.348 52.8457ZM357.716 40.7992C357.086 39.3341 356.386 37.8792 355.634 36.4725C355.247 35.7509 355.52 34.8526 356.242 34.4655C356.963 34.0799 357.862 34.3516 358.249 35.0732C359.042 36.5543 359.78 38.0866 360.441 39.6291C360.764 40.3814 360.416 41.2534 359.664 41.5762C359.503 41.6449 359.338 41.6829 359.173 41.6946C358.563 41.7325 357.968 41.3907 357.716 40.7992ZM351.478 29.8686C350.536 28.5803 349.528 27.3168 348.481 26.1146C347.943 25.4967 348.008 24.5604 348.626 24.0228C349.243 23.4853 350.18 23.551 350.717 24.1675C351.82 25.4339 352.882 26.7631 353.872 28.1187C354.356 28.7804 354.211 29.7079 353.55 30.19C353.313 30.3623 353.043 30.4558 352.77 30.4734C352.282 30.504 351.789 30.2922 351.478 29.8686ZM342.962 20.5989C341.76 19.5545 340.498 18.5452 339.207 17.603C338.545 17.1195 338.402 16.192 338.886 15.5303C339.369 14.8686 340.297 14.7254 340.958 15.2089C342.315 16.2007 343.645 17.2627 344.91 18.3626C345.527 18.9001 345.593 19.8364 345.056 20.4543C344.785 20.7655 344.413 20.9364 344.03 20.9612C343.653 20.9846 343.269 20.8662 342.962 20.5989ZM332.607 13.4458C331.202 12.6906 329.747 11.988 328.284 11.3541C327.531 11.0298 327.187 10.1563 327.511 9.40548C327.835 8.65321 328.709 8.30702 329.461 8.63276C331.002 9.29885 332.533 10.0394 334.011 10.8341C334.733 11.2211 335.003 12.1209 334.616 12.8425C334.365 13.3114 333.897 13.589 333.402 13.6211C333.135 13.6357 332.86 13.5817 332.607 13.4458ZM277.55 12.7549C277.165 12.0318 277.438 11.1335 278.161 10.7493C279.641 9.96055 281.176 9.22435 282.723 8.56411C283.477 8.24275 284.347 8.59186 284.668 9.34559C284.99 10.0979 284.641 10.9699 283.887 11.2913C282.419 11.9179 280.961 12.6161 279.556 13.3669C279.363 13.4692 279.159 13.5262 278.953 13.5393C278.392 13.5729 277.834 13.2851 277.55 12.7549ZM320.932 8.76715C319.395 8.34354 317.822 7.98274 316.255 7.69352C315.45 7.54453 314.917 6.77035 315.066 5.9655C315.215 5.15918 315.988 4.63186 316.794 4.77647C318.444 5.08176 320.101 5.46155 321.719 5.90707C322.508 6.12471 322.973 6.94125 322.755 7.73004C322.583 8.35669 322.033 8.77737 321.42 8.81681C321.259 8.8285 321.094 8.81243 320.932 8.76715ZM289.441 7.6906C289.227 6.90035 289.695 6.08674 290.485 5.87201C292.105 5.4338 293.764 5.06131 295.418 4.76041C296.224 4.60995 296.995 5.14896 297.141 5.95527C297.288 6.76012 296.753 7.53284 295.947 7.67891C294.375 7.96375 292.797 8.31871 291.259 8.73501C291.161 8.7613 291.062 8.77737 290.964 8.78321C290.275 8.82704 289.628 8.38298 289.441 7.6906ZM308.506 6.81709C306.914 6.74844 305.298 6.74844 303.704 6.81563C302.886 6.85069 302.196 6.21528 302.16 5.39728C302.127 4.5895 302.745 3.90589 303.547 3.85476C303.557 3.85476 303.567 3.8533 303.579 3.8533C305.257 3.78173 306.959 3.78173 308.634 3.8533C309.452 3.88836 310.088 4.58074 310.053 5.39874C310.021 6.16269 309.414 6.76743 308.666 6.81417C308.612 6.81855 308.558 6.81855 308.506 6.81709Z" fill="#BDD0FB"/>
<path opacity="0.3" d="M270.248 19.2477C270.539 19.2287 270.828 19.125 271.075 18.9293C271.674 18.4531 272.292 17.9827 272.914 17.5299C273.576 17.0479 273.72 16.1189 273.238 15.4586C272.756 14.7969 271.827 14.6509 271.167 15.1358C270.513 15.612 269.863 16.1072 269.233 16.6082C268.592 17.118 268.485 18.0499 268.993 18.6912C269.305 19.0856 269.779 19.2769 270.248 19.2477Z" fill="#BDD0FB"/>
</g>
<g opacity="0.3">
<path opacity="0.3" d="M248.631 58.95C249.345 58.9047 249.941 58.3467 250.012 57.612C250.085 56.8509 250.174 56.0782 250.279 55.3172C250.39 54.5051 249.823 53.7572 249.012 53.6462C248.197 53.5337 247.452 54.1019 247.341 54.9126C247.232 55.7145 247.137 56.5281 247.059 57.3286C246.982 58.1437 247.579 58.8682 248.394 58.9456C248.475 58.9544 248.554 58.9544 248.631 58.95Z" fill="#BDD0FB"/>
<path opacity="0.3" d="M306.795 122.25C305.976 122.262 305.302 121.607 305.291 120.788C305.279 119.97 305.932 119.298 306.751 119.285C308.31 119.263 309.892 119.174 311.472 119.019C312.283 118.937 313.012 119.536 313.092 120.351C313.171 121.166 312.575 121.891 311.76 121.971C311.075 122.038 310.393 122.092 309.712 122.136C308.741 122.197 307.759 122.235 306.795 122.25ZM317.948 119.543C317.759 118.747 318.252 117.948 319.049 117.76C320.579 117.398 322.109 116.967 323.599 116.477C324.376 116.22 325.215 116.647 325.47 117.425C325.725 118.202 325.301 119.041 324.522 119.295C322.954 119.809 321.342 120.263 319.733 120.645C319.649 120.665 319.566 120.677 319.483 120.683C318.775 120.726 318.116 120.258 317.948 119.543ZM298.728 121.812C297.09 121.61 295.44 121.336 293.82 120.994C293.018 120.826 292.505 120.038 292.673 119.237C292.841 118.436 293.628 117.923 294.429 118.091C295.967 118.416 297.534 118.676 299.089 118.867C299.901 118.968 300.479 119.707 300.378 120.521C300.289 121.239 299.701 121.774 299.002 121.819C298.915 121.826 298.821 121.823 298.728 121.812ZM330.029 115.576C329.67 114.84 329.975 113.952 330.711 113.594C332.123 112.906 333.52 112.148 334.867 111.343C335.571 110.922 336.48 111.152 336.9 111.856C337.321 112.558 337.092 113.468 336.389 113.889C334.971 114.736 333.498 115.534 332.014 116.258C331.835 116.346 331.646 116.394 331.458 116.406C330.874 116.442 330.301 116.131 330.029 115.576ZM286.052 118.794C284.5 118.237 282.951 117.606 281.446 116.918C280.701 116.578 280.374 115.699 280.714 114.954C281.055 114.209 281.934 113.882 282.679 114.222C284.109 114.875 285.58 115.475 287.054 116.004C287.825 116.28 288.225 117.13 287.949 117.9C287.743 118.474 287.219 118.844 286.646 118.879C286.45 118.892 286.249 118.864 286.052 118.794ZM274.346 113.069C272.949 112.184 271.575 111.23 270.26 110.234C269.607 109.739 269.478 108.81 269.974 108.157C270.469 107.504 271.399 107.376 272.051 107.871C273.301 108.817 274.607 109.724 275.933 110.564C276.626 111.003 276.83 111.918 276.392 112.611C276.128 113.027 275.689 113.268 275.232 113.297C274.93 113.316 274.62 113.243 274.346 113.069ZM264.164 104.929C262.994 103.76 261.859 102.53 260.793 101.271C260.264 100.646 260.342 99.7112 260.965 99.181C261.591 98.6507 262.525 98.7296 263.056 99.3533C264.069 100.55 265.147 101.718 266.259 102.828C266.839 103.407 266.84 104.346 266.262 104.924C265.996 105.19 265.654 105.335 265.307 105.357C264.896 105.385 264.478 105.241 264.164 104.929ZM256.002 94.7608C255.115 93.3644 254.277 91.9154 253.513 90.4517C253.133 89.7258 253.415 88.8303 254.141 88.4506C254.866 88.0722 255.762 88.3527 256.142 89.0787C256.868 90.4678 257.663 91.8452 258.506 93.1716C258.945 93.8625 258.741 94.7784 258.05 95.218C257.831 95.3568 257.591 95.4313 257.35 95.4459C256.827 95.4795 256.303 95.2341 256.002 94.7608ZM250.27 83.043C249.714 81.4903 249.217 79.8922 248.793 78.2942C248.583 77.5025 249.055 76.6903 249.847 76.48C250.635 76.2711 251.45 76.7415 251.659 77.5332C252.062 79.0509 252.534 80.5685 253.062 82.0439C253.338 82.8151 252.936 83.6638 252.165 83.9399C252.03 83.9881 251.894 84.0158 251.759 84.0246C251.117 84.064 250.498 83.6799 250.27 83.043ZM247.254 70.3655C247.103 69.1589 246.988 67.9334 246.91 66.7224C246.883 66.2842 246.859 65.846 246.842 65.4093C246.808 64.5913 247.432 63.8843 248.262 63.8667C249.08 63.8317 249.771 64.4686 249.806 65.2866C249.823 65.7014 249.845 66.1177 249.871 66.5355C249.944 67.6865 250.054 68.8522 250.197 69.9988C250.299 70.811 249.722 71.553 248.91 71.6538C248.88 71.6582 248.849 71.6611 248.818 71.6626C248.043 71.7093 247.352 71.1469 247.254 70.3655Z" fill="#BDD0FB"/>
<path opacity="0.3" d="M342.222 109.574C342.516 109.555 342.808 109.45 343.055 109.251C343.681 108.749 344.308 108.224 344.92 107.691C345.538 107.152 345.601 106.216 345.063 105.599C344.524 104.983 343.589 104.917 342.971 105.456C342.39 105.963 341.794 106.461 341.199 106.939C340.561 107.45 340.457 108.383 340.97 109.023C341.284 109.413 341.756 109.605 342.222 109.574Z" fill="#BDD0FB"/>
</g>
<path d="M345.022 84.3094C345.194 84.0684 345.194 83.7456 345.024 83.5046L340.139 76.629C341.641 72.9874 342.571 69.08 342.838 65.0353L350.25 61.0213C350.51 60.8811 350.652 60.5904 350.603 60.2982L348.948 50.3172C348.9 50.025 348.672 49.7972 348.38 49.7475L340.069 48.3408C338.512 44.5985 336.369 41.2008 333.772 38.2385L336.176 30.1535C336.261 29.8701 336.156 29.5648 335.915 29.3924L327.686 23.5058C327.445 23.3334 327.122 23.3334 326.881 23.5043L320.006 28.3889C316.364 26.8873 312.457 25.9568 308.412 25.6895L304.398 18.2779C304.258 18.0179 303.967 17.8762 303.675 17.9244L293.694 19.5794C293.402 19.6276 293.174 19.8554 293.124 20.1476L291.718 28.459C287.975 30.0162 284.578 32.159 281.615 34.7562L273.53 32.3518C273.247 32.2671 272.942 32.3723 272.769 32.6133L266.883 40.8415C266.71 41.0825 266.71 41.4053 266.881 41.6464L271.766 48.5219C270.264 52.1635 269.334 56.0709 269.066 60.1156L261.655 64.1297C261.395 64.2699 261.253 64.5606 261.301 64.8527L262.956 74.8338C263.004 75.1259 263.232 75.3538 263.524 75.4035L271.836 76.8101C273.393 80.5525 275.536 83.9501 278.133 86.9124L275.729 94.9975C275.644 95.2809 275.749 95.5862 275.99 95.7585L284.218 101.645C284.459 101.818 284.782 101.818 285.023 101.647L291.899 96.762C295.54 98.2636 299.448 99.1941 303.492 99.4614L307.507 106.873C307.647 107.133 307.937 107.275 308.23 107.227L318.211 105.572C318.503 105.523 318.731 105.296 318.78 105.003L320.187 96.6919C323.929 95.1348 327.327 92.9919 330.289 90.3948L338.374 92.7991C338.658 92.8838 338.963 92.7787 339.135 92.5377L345.022 84.3094Z" fill="#BDD0FB"/>
<path d="M305.11 72.7099C299.521 72.2454 295.353 67.3213 295.818 61.7326C296.043 59.0259 297.309 56.5675 299.382 54.8132C301.455 53.0589 304.087 52.2146 306.795 52.441C312.384 52.9055 316.551 57.8296 316.087 63.4183C315.665 68.503 311.55 72.4104 306.604 72.7245C306.113 72.7552 305.614 72.7508 305.11 72.7099ZM300.914 56.6245C299.325 57.9698 298.354 59.8541 298.181 61.9298C297.825 66.2141 301.021 69.99 305.305 70.3464C309.591 70.7043 313.366 67.5068 313.722 63.2211C314.078 58.9368 310.882 55.1609 306.598 54.8044C306.21 54.7723 305.824 54.7694 305.441 54.7928C303.783 54.8979 302.207 55.5304 300.914 56.6245Z" fill="url(#paint6_linear)"/>
<path d="M307.327 87.3959C308.177 87.3419 309.029 87.2455 309.88 87.1038C310.148 87.06 310.415 87.0103 310.682 86.9577C311.995 86.6962 313.287 86.3311 314.536 85.8666C314.553 85.8607 314.569 85.8534 314.587 85.8476C314.635 85.83 314.683 85.8111 314.731 85.7921C314.825 85.757 314.918 85.7205 315.012 85.6825C315.257 85.5861 315.402 85.3436 315.386 85.0938C315.381 85.0325 315.368 84.9726 315.345 84.9127C315.225 84.6074 314.88 84.4599 314.575 84.5797C313.008 85.2005 311.363 85.6547 309.686 85.9323C301.36 87.3141 293.31 84.1765 288.048 78.319C285.121 75.0617 283.059 70.9629 282.29 66.331C282.156 65.5188 282.062 64.7052 282.011 63.896C281.665 58.4416 283.193 53.0794 286.417 48.5745C290.118 43.4007 295.615 39.9768 301.892 38.9367C314.854 36.788 327.138 45.5815 329.287 58.5381C329.42 59.3371 329.511 60.139 329.562 60.9424C329.782 64.4218 329.239 67.91 327.958 71.1557C327.924 71.239 327.913 71.3266 327.919 71.4113C327.933 71.6334 328.072 71.8379 328.292 71.9255C328.598 72.0453 328.942 71.8977 329.062 71.591C330.406 68.1831 330.977 64.5197 330.746 60.8679C330.694 60.0251 330.597 59.1822 330.459 58.3438C328.203 44.7402 315.298 35.5114 301.699 37.7652C295.11 38.8579 289.341 42.4512 285.454 47.8836C282.07 52.6119 280.466 58.2415 280.83 63.9675C280.884 64.8177 280.982 65.6722 281.122 66.5238C282.214 73.1131 285.808 78.8829 291.24 82.7698C295.968 86.1558 301.599 87.7596 307.327 87.3959Z" fill="url(#paint7_linear)"/>
<g opacity="0.3">
<path opacity="0.3" d="M416.786 102.733C417.181 102.709 417.529 102.427 417.621 102.021C417.792 101.263 417.944 100.488 418.068 99.72C418.15 99.2205 417.811 98.7501 417.313 98.6683C416.813 98.585 416.343 98.9254 416.261 99.4235C416.141 100.155 415.998 100.893 415.835 101.616C415.724 102.108 416.033 102.599 416.526 102.712C416.613 102.733 416.701 102.739 416.786 102.733Z" fill="#BDD0FB"/>
<path opacity="0.3" d="M417.606 95.7498C417.101 95.7293 416.707 95.3057 416.727 94.7989C416.775 93.5237 416.759 92.2309 416.679 90.9572C416.661 90.6884 416.641 90.4196 416.619 90.1494C416.577 89.6455 416.951 89.2029 417.455 89.1605C417.932 89.1386 418.401 89.4921 418.445 89.996C418.468 90.278 418.49 90.5599 418.508 90.8418C418.593 92.1769 418.61 93.5324 418.559 94.8704C418.541 95.3437 418.166 95.7191 417.703 95.7498C417.669 95.7513 417.639 95.7513 417.606 95.7498ZM415.944 85.5482C415.627 84.0334 415.214 82.5245 414.714 81.0638C414.551 80.5847 414.806 80.0646 415.285 79.901C415.762 79.7389 416.285 79.9931 416.448 80.4722C416.971 82.003 417.405 83.585 417.737 85.1728C417.84 85.6679 417.523 86.1529 417.028 86.2566C416.984 86.2654 416.94 86.2712 416.898 86.2741C416.45 86.3019 416.039 85.9981 415.944 85.5482ZM412.94 76.7649C412.262 75.3758 411.49 74.0158 410.645 72.7187C410.369 72.2951 410.488 71.7283 410.912 71.4523C411.337 71.1747 411.902 71.2945 412.18 71.7181C413.067 73.0766 413.876 74.5052 414.587 75.9615C414.809 76.4158 414.621 76.965 414.167 77.187C414.056 77.2411 413.939 77.2703 413.823 77.2776C413.461 77.2995 413.106 77.1082 412.94 76.7649ZM407.868 68.9881C406.869 67.8063 405.788 66.6743 404.654 65.6284C404.283 65.2851 404.26 64.7052 404.603 64.3342C404.945 63.9632 405.525 63.9398 405.897 64.2831C407.086 65.3815 408.22 66.5662 409.267 67.8063C409.595 68.192 409.545 68.7704 409.159 69.0976C409.003 69.2291 408.816 69.2992 408.627 69.3109C408.346 69.3284 408.062 69.2188 407.868 68.9881ZM401.051 62.6851C399.795 61.7823 398.471 60.9483 397.117 60.2062C396.674 59.9638 396.511 59.4072 396.753 58.9632C396.996 58.5191 397.552 58.3555 397.996 58.5995C399.416 59.3766 400.802 60.2515 402.12 61.1966C402.53 61.4917 402.624 62.0643 402.329 62.4747C402.162 62.707 401.907 62.837 401.642 62.8545C401.439 62.8691 401.23 62.8136 401.051 62.6851ZM392.912 58.2284C391.476 57.6588 389.99 57.1723 388.496 56.7852C388.007 56.6582 387.713 56.1586 387.84 55.6693C387.967 55.1799 388.465 54.8863 388.956 55.0119C390.522 55.418 392.081 55.9278 393.588 56.5252C394.058 56.7122 394.288 57.2439 394.101 57.7143C393.965 58.0546 393.649 58.2693 393.308 58.2912C393.176 58.3 393.042 58.281 392.912 58.2284ZM383.933 55.8986C382.405 55.6985 380.845 55.5933 379.293 55.5831C378.788 55.5787 378.38 55.1668 378.383 54.6614C378.386 54.156 378.798 53.7557 379.305 53.7513C380.931 53.7616 382.567 53.8726 384.169 54.0829C384.67 54.1487 385.024 54.6088 384.96 55.1098C384.903 55.5509 384.539 55.8781 384.111 55.9044C384.052 55.9074 383.993 55.9059 383.933 55.8986ZM368.966 55.9921C368.846 55.5013 369.147 55.0061 369.64 54.8863C370.999 54.5547 372.402 54.2918 373.803 54.1048C374.016 54.0756 374.228 54.0493 374.439 54.0245C374.938 53.9515 375.396 54.3254 375.455 54.8293C375.513 55.3318 375.152 55.7861 374.65 55.8445C374.451 55.8665 374.251 55.8927 374.048 55.9205C372.707 56.0987 371.371 56.35 370.073 56.6655C370.019 56.6786 369.967 56.6859 369.914 56.6903C369.477 56.7166 369.073 56.4303 368.966 55.9921Z" fill="#BDD0FB"/>
</g>
<g opacity="0.3">
<path opacity="0.3" d="M380.983 132.815C379.39 132.896 377.777 132.88 376.189 132.767C375.685 132.731 375.304 132.294 375.341 131.788C375.376 131.283 375.817 130.909 376.319 130.94C377.833 131.046 379.371 131.063 380.891 130.985C381.397 130.959 381.826 131.349 381.853 131.853C381.877 132.354 381.495 132.782 380.997 132.812C380.992 132.815 380.988 132.815 380.983 132.815ZM384.694 131.539C384.607 131.041 384.942 130.567 385.44 130.481C386.939 130.223 388.439 129.872 389.895 129.435C390.377 129.292 390.89 129.565 391.035 130.052C391.179 130.537 390.905 131.045 390.42 131.191C388.893 131.647 387.321 132.016 385.751 132.285C385.718 132.291 385.685 132.295 385.652 132.297C385.193 132.328 384.774 132.005 384.694 131.539ZM371.435 132.136C369.867 131.829 368.306 131.423 366.794 130.931C366.313 130.775 366.051 130.256 366.207 129.777C366.363 129.297 366.879 129.035 367.361 129.19C368.804 129.66 370.292 130.047 371.788 130.341C372.285 130.439 372.608 130.919 372.511 131.415C372.429 131.832 372.076 132.127 371.671 132.152C371.592 132.157 371.514 132.152 371.435 132.136ZM393.719 129.066C393.516 128.603 393.727 128.062 394.19 127.859C395.583 127.249 396.952 126.546 398.259 125.77C398.695 125.513 399.255 125.656 399.514 126.09C399.773 126.526 399.629 127.088 399.194 127.345C397.822 128.159 396.387 128.896 394.926 129.536C394.825 129.58 394.72 129.605 394.616 129.611C394.242 129.635 393.877 129.428 393.719 129.066ZM362.335 129.171C360.891 128.498 359.473 127.728 358.12 126.885C357.691 126.618 357.561 126.052 357.828 125.623C358.096 125.193 358.661 125.062 359.09 125.331C360.38 126.136 361.733 126.869 363.11 127.512C363.569 127.725 363.767 128.27 363.553 128.73C363.407 129.044 363.104 129.235 362.78 129.257C362.633 129.264 362.479 129.238 362.335 129.171ZM354.211 124.108C352.968 123.106 351.775 122.019 350.665 120.88C350.313 120.518 350.32 119.938 350.682 119.586C351.045 119.234 351.625 119.24 351.978 119.603C353.037 120.69 354.175 121.727 355.361 122.682C355.755 122.999 355.817 123.576 355.5 123.971C355.332 124.178 355.092 124.294 354.844 124.31C354.623 124.323 354.397 124.257 354.211 124.108ZM347.533 117.246C346.565 115.975 345.668 114.632 344.864 113.259C344.609 112.823 344.756 112.262 345.193 112.006C345.63 111.75 346.191 111.899 346.446 112.335C347.212 113.645 348.068 114.925 348.991 116.136C349.298 116.539 349.22 117.113 348.817 117.42C348.668 117.533 348.496 117.593 348.322 117.605C348.025 117.623 347.726 117.498 347.533 117.246Z" fill="#BDD0FB"/>
<path opacity="0.3" d="M402.697 124.815C402.874 124.803 403.048 124.742 403.198 124.625C403.819 124.146 404.426 123.645 405.008 123.14C405.389 122.807 405.429 122.228 405.095 121.847C404.762 121.467 404.185 121.428 403.803 121.759C403.249 122.243 402.668 122.719 402.076 123.178C401.676 123.487 401.603 124.063 401.913 124.462C402.107 124.711 402.403 124.834 402.697 124.815Z" fill="#BDD0FB"/>
</g>
<path d="M405.128 107.551C405.243 107.39 405.243 107.174 405.129 107.012L401.86 102.411C402.865 99.9741 403.487 97.3594 403.666 94.6527L408.625 91.9665C408.799 91.8715 408.893 91.6787 408.861 91.483L407.754 84.8046C407.722 84.6089 407.569 84.4555 407.374 84.4234L401.813 83.4812C400.77 80.9776 399.337 78.7032 397.601 76.721L399.209 71.3106C399.266 71.1207 399.196 70.9162 399.034 70.8008L393.528 66.8612C393.368 66.7458 393.151 66.7458 392.989 66.8598L388.388 70.1288C385.951 69.1239 383.337 68.5016 380.63 68.3234L377.944 63.3643C377.849 63.1905 377.656 63.0955 377.46 63.1277L370.782 64.2349C370.586 64.267 370.434 64.4204 370.401 64.6147L369.458 70.1756C366.955 71.2185 364.68 72.6515 362.698 74.3897L357.288 72.7815C357.098 72.7245 356.893 72.7946 356.778 72.9568L352.838 78.4622C352.723 78.6229 352.723 78.8391 352.837 78.9998L356.106 83.601C355.101 86.0375 354.479 88.6521 354.301 91.3588L349.341 94.0451C349.168 94.1386 349.073 94.3329 349.105 94.5286L350.212 101.207C350.244 101.403 350.398 101.555 350.592 101.588L356.153 102.53C357.196 105.034 358.629 107.308 360.367 109.291L358.759 114.701C358.702 114.891 358.772 115.095 358.934 115.211L364.439 119.15C364.6 119.266 364.816 119.266 364.978 119.152L369.58 115.883C372.016 116.888 374.631 117.51 377.338 117.688L380.024 122.647C380.119 122.821 380.312 122.916 380.507 122.884L387.186 121.777C387.381 121.745 387.533 121.591 387.567 121.397L388.509 115.836C391.013 114.793 393.287 113.36 395.269 111.622L400.68 113.23C400.87 113.287 401.074 113.217 401.19 113.055L405.128 107.551Z" fill="#BDD0FB"/>
<path d="M378.41 99.9099C376.565 99.7565 374.891 98.8947 373.696 97.4822C372.501 96.0711 371.927 94.2773 372.08 92.4325C372.397 88.6258 375.745 85.7921 379.558 86.1032C383.364 86.4202 386.204 89.7754 385.887 93.5806C385.734 95.424 384.872 97.0994 383.459 98.2943C382.311 99.2657 380.912 99.8266 379.437 99.9201C379.098 99.942 378.754 99.9391 378.41 99.9099ZM373.905 92.5844C373.792 93.9414 374.215 95.2604 375.094 96.299C375.973 97.3375 377.205 97.9715 378.562 98.084C379.919 98.195 381.238 97.7743 382.276 96.895C383.315 96.0156 383.949 94.7842 384.061 93.4287C384.293 90.6285 382.206 88.1613 379.406 87.9276C379.153 87.9072 378.903 87.9043 378.658 87.9203C376.179 88.0781 374.117 90.0384 373.905 92.5844Z" fill="url(#paint8_linear)"/>
<path d="M379.954 110.132C380.532 110.095 381.113 110.028 381.696 109.933C382.855 109.742 383.995 109.432 385.088 109.012C385.138 108.993 385.186 108.974 385.236 108.953C385.614 108.804 385.837 108.43 385.812 108.045C385.807 107.951 385.786 107.856 385.75 107.764C385.564 107.294 385.031 107.066 384.562 107.25C383.545 107.652 382.481 107.947 381.398 108.125C381.338 108.135 381.278 108.144 381.22 108.153C378.654 108.553 376.084 108.299 373.702 107.446C372.409 106.983 371.17 106.343 370.016 105.534C370.008 105.528 369.997 105.521 369.989 105.515C369.959 105.494 369.932 105.474 369.904 105.453C366.555 103.056 364.339 99.4994 363.665 95.4357C363.578 94.9099 363.518 94.384 363.484 93.8596C363.261 90.3291 364.249 86.857 366.337 83.9399C368.734 80.5905 372.292 78.3746 376.354 77.7012C380.415 77.0293 384.501 77.9758 387.85 80.3729C391.2 82.7699 393.415 86.3267 394.089 90.3904C394.175 90.9075 394.233 91.4276 394.267 91.9461C394.41 94.1985 394.058 96.4568 393.228 98.5588C393.177 98.6888 393.158 98.8217 393.167 98.9531C393.189 99.2964 393.404 99.6134 393.746 99.7478C394.216 99.9318 394.748 99.7025 394.933 99.2321C395.861 96.8804 396.255 94.3534 396.096 91.8351C396.059 91.2537 395.994 90.6724 395.897 90.0939C395.143 85.5467 392.665 81.5677 388.916 78.8859C385.168 76.2054 380.604 75.1391 376.056 75.8972C371.511 76.651 367.53 79.1298 364.848 82.878C362.514 86.1398 361.407 90.0238 361.657 93.975C361.693 94.5608 361.76 95.1509 361.858 95.7381C363.315 104.537 371.235 110.686 379.954 110.132Z" fill="url(#paint9_linear)"/>
<path d="M293.336 52.6296L69.514 51.2594C62.1578 51.2141 56.2755 57.3579 56.6392 64.7053L71.6291 374.26C71.8584 378.988 75.7571 382.703 80.4912 382.703H312.622C317.375 382.703 321.292 378.972 321.522 374.225L334.939 98.588L293.336 52.6296Z" fill="#91B3FA"/>
<path d="M302.643 97.2266C295.352 96.9695 289.746 90.6855 290.321 83.414L292.721 53.0487L334.984 98.4024L302.643 97.2266Z" fill="#7D97F4"/>
<path d="M107.336 109.844C138.355 110.715 257.434 113.931 287.504 114.743C291.297 114.846 294.311 117.279 294.165 120.116C294.026 122.815 291.058 124.885 287.448 124.8L107.364 120.559C103.895 120.477 101.001 118.429 100.687 115.833L100.608 115.177C100.249 112.208 103.371 109.733 107.336 109.844Z" fill="url(#paint10_linear)"/>
<path d="M103.771 141.287C104.263 141.974 105.202 142.421 106.229 142.458L229.812 146.794C231.364 146.848 232.653 145.965 232.713 144.803L233.025 138.711C233.088 137.5 231.794 136.463 230.175 136.425L109.966 133.616C104.612 133.492 101.207 137.707 103.771 141.287Z" fill="url(#paint11_linear)"/>
<path d="M104.298 164.945C135.316 165.816 254.395 169.032 284.465 169.844C288.259 169.947 291.272 172.38 291.126 175.217C290.987 177.916 288.019 179.986 284.41 179.901L104.326 175.658C100.857 175.576 97.9629 173.528 97.6488 170.933L97.5699 170.275C97.2106 167.309 100.331 164.834 104.298 164.945Z" fill="url(#paint12_linear)"/>
<path d="M100.731 196.389C101.223 197.075 102.162 197.522 103.189 197.559L226.772 201.895C228.324 201.95 229.613 201.066 229.673 199.905L229.985 193.812C230.048 192.601 228.754 191.564 227.135 191.526L106.926 188.717C101.574 188.593 98.1674 192.808 100.731 196.389Z" fill="url(#paint13_linear)"/>
<path d="M115.543 296.607C116.599 283.136 121.165 269.93 128.335 258.346C131.939 252.56 136.174 247.141 141.026 242.311C142.269 241.136 143.483 239.925 144.757 238.782C146.067 237.679 147.347 236.536 148.688 235.469C150.059 234.44 151.416 233.387 152.824 232.409L154.975 230.99L156.05 230.282L156.587 229.928C156.781 229.807 157.044 229.651 157.277 229.527C161.054 227.441 166.478 227.344 170.14 231.024C171.032 231.908 171.653 232.969 172.116 234.012C172.326 234.537 172.531 235.068 172.654 235.586C172.811 236.113 172.896 236.62 172.984 237.132C173.307 239.173 173.215 241.069 173.025 242.901C172.928 243.815 172.779 244.714 172.619 245.589L172.128 248.059C171.814 249.708 171.446 251.347 171.085 252.987C170.36 256.266 169.539 259.522 168.679 262.768C165.173 275.733 160.531 288.39 154.789 300.526L152.591 305.054C151.821 306.545 151.07 308.047 150.286 309.53L149.094 311.747L148.498 312.856L147.842 314.012C146.933 315.552 145.92 317.046 144.738 318.468C143.552 319.883 142.209 321.244 140.537 322.388C138.88 323.519 136.79 324.438 134.472 324.55C133.898 324.608 133.324 324.549 132.751 324.487C132.17 324.457 131.638 324.268 131.086 324.138C129.99 323.843 128.952 323.311 128.04 322.666C126.203 321.363 124.884 319.559 124.066 317.616C123.277 315.697 122.931 313.693 122.916 311.744C122.893 309.795 123.185 307.942 123.584 306.192C123.993 304.438 124.5 302.796 125.059 301.189L125.884 298.764L126.813 296.379C129.305 290.022 132.602 284.01 136.453 278.4C140.29 272.777 144.821 267.648 149.811 263.037L150.743 262.168L151.714 261.342L153.66 259.697C154.322 259.166 155.002 258.656 155.673 258.136C156.348 257.622 157.008 257.087 157.715 256.614C159.107 255.641 160.484 254.648 161.939 253.768L163.016 253.089L163.553 252.75C163.65 252.692 163.718 252.642 163.837 252.575L164.192 252.376C165.15 251.872 166.197 251.535 167.28 251.421C169.433 251.167 171.76 251.808 173.435 253.336C174.298 254.097 174.989 255.187 175.303 256.309C175.635 257.435 175.623 258.517 175.527 259.493C175.423 260.473 175.214 261.369 174.991 262.214L174.316 264.629L172.972 269.414C171.194 275.797 169.345 282.163 167.534 288.538L167.529 288.552L164.731 288.053C164.94 285.907 165.517 283.741 166.701 281.795C167.304 280.83 168.039 279.936 168.965 279.191C169.891 278.434 170.965 277.905 172.097 277.569C173.235 277.251 174.45 277.135 175.669 277.337C176.275 277.436 176.881 277.606 177.452 277.875C177.743 277.996 178.014 278.162 178.286 278.323L178.85 278.678C180.22 279.449 181.929 279.594 183.334 278.974C183.689 278.833 184.015 278.63 184.325 278.406C184.471 278.284 184.629 278.174 184.76 278.032L184.973 277.826L185.227 277.555L187.267 275.38L191.345 271.03L195.423 266.68L197.462 264.505C197.963 263.977 198.682 263.513 199.481 263.352C200.28 263.183 201.11 263.295 201.815 263.617C202.524 263.936 203.134 264.461 203.552 265.144C203.971 265.825 204.152 266.683 204.057 267.466C204.047 267.667 204.003 267.853 203.951 268.037C203.904 268.211 203.84 268.438 203.805 268.522L203.561 269.208L203.098 270.59C202.499 272.438 201.994 274.316 201.57 276.212C201.151 278.11 200.818 280.026 200.578 281.953C200.552 282.189 200.515 282.444 200.496 282.667L200.479 283.256C200.454 283.454 200.489 283.644 200.517 283.834C200.553 284.021 200.537 284.223 200.609 284.401C200.771 285.15 201.17 285.821 201.659 286.408C202.148 287.004 202.828 287.441 203.54 287.743C203.894 287.917 204.28 287.981 204.656 288.079C205.042 288.113 205.426 288.171 205.809 288.123C206.568 288.063 207.325 287.864 207.972 287.432L208.225 287.29L208.451 287.102L208.911 286.726L209.965 285.695C212.769 282.94 215.454 280.061 218.001 277.065C223.088 271.066 227.641 264.616 231.582 257.81L233.026 255.239L233.723 253.941L234.072 253.291L234.16 253.129C234.164 253.11 234.156 253.12 234.156 253.12C234.172 253.113 234.148 253.135 234.157 253.151C234.153 253.26 234.201 253.282 234.189 253.272C234.189 253.272 234.21 253.286 234.255 253.282C234.297 253.273 234.356 253.262 234.356 253.253C234.356 253.253 234.357 253.251 234.35 253.251L234.224 253.378L233.973 253.633C233.804 253.801 233.64 253.974 233.478 254.15C233.149 254.494 232.834 254.854 232.518 255.212C231.272 256.658 230.139 258.205 229.141 259.835C228.641 260.65 228.174 261.484 227.739 262.336C227.524 262.762 227.314 263.192 227.115 263.627L226.823 264.281L226.678 264.61L226.583 264.903C226.016 266.443 226.008 268.142 226.712 269.603C227.398 271.053 228.652 272.287 230.177 272.839C230.92 273.17 231.734 273.237 232.527 273.259C233.32 273.183 234.125 273.056 234.863 272.677L235.423 272.42L236.054 272.054C236.474 271.805 236.902 271.57 237.314 271.31C238.149 270.806 238.972 270.282 239.787 269.747C246.297 265.448 252.127 260.12 256.975 254.015L256.978 254.012C257.467 253.396 258.364 253.292 258.982 253.783C259.598 254.272 259.702 255.169 259.213 255.787C254.172 262.135 248.119 267.666 241.36 272.128C240.514 272.685 239.66 273.228 238.793 273.751C238.365 274.021 237.921 274.267 237.486 274.524L236.829 274.905L236.038 275.277C234.994 275.796 233.805 276.024 232.626 276.111C231.444 276.104 230.239 275.967 229.15 275.501C226.929 274.676 225.133 272.934 224.125 270.799C223.091 268.662 223.096 266.071 223.913 263.907L224.055 263.495L224.21 263.14L224.525 262.435C224.74 261.966 224.966 261.503 225.198 261.041C225.669 260.123 226.173 259.223 226.712 258.343C227.79 256.585 229.014 254.914 230.362 253.348C230.702 252.959 231.044 252.572 231.401 252.197C231.576 252.007 231.754 251.82 231.937 251.637L232.208 251.361L232.344 251.224C232.432 251.145 232.53 251.062 232.625 250.986C233.018 250.685 233.549 250.451 234.094 250.434C234.635 250.406 235.152 250.543 235.587 250.786C236.444 251.253 237.087 252.257 237.001 253.367C236.975 253.625 236.925 253.9 236.83 254.122C236.786 254.233 236.732 254.359 236.687 254.454L236.598 254.62L236.241 255.285L235.529 256.612L234.052 259.24C230.025 266.195 225.372 272.785 220.175 278.915C217.574 281.976 214.83 284.918 211.963 287.733L210.886 288.788L210.197 289.36L209.845 289.641L209.453 289.873C208.434 290.536 207.21 290.884 206 290.971C205.39 291.034 204.785 290.964 204.182 290.894C203.593 290.759 202.997 290.634 202.448 290.38C201.342 289.912 200.306 289.229 199.518 288.294C198.732 287.372 198.105 286.274 197.836 285.073C197.737 284.781 197.736 284.473 197.684 284.173C197.645 283.871 197.603 283.568 197.627 283.269L197.661 282.368L197.749 281.602C197.998 279.585 198.348 277.581 198.786 275.596C199.228 273.612 199.757 271.648 200.384 269.715L200.867 268.27L201.123 267.552C201.18 267.404 201.168 267.388 201.189 267.322C201.208 267.267 201.227 267.211 201.219 267.163C201.244 266.962 201.209 266.794 201.11 266.623C201.009 266.456 200.834 266.303 200.637 266.215C200.213 266.049 199.9 266.109 199.541 266.456L197.502 268.631L193.424 272.981L189.345 277.331L187.306 279.506L187.052 279.778L186.732 280.093C186.52 280.312 186.275 280.497 186.037 280.688C185.544 281.05 185.016 281.37 184.449 281.601C182.188 282.587 179.531 282.344 177.445 281.163L176.745 280.727C176.587 280.64 176.438 280.539 176.267 280.472C175.94 280.314 175.579 280.215 175.207 280.153C174.46 280.026 173.651 280.096 172.879 280.312C171.31 280.754 170.024 281.821 169.126 283.289C168.235 284.747 167.738 286.516 167.567 288.317L164.769 287.818L164.772 287.803C166.375 281.373 167.941 274.933 169.579 268.511L170.797 263.693L171.397 261.304C171.578 260.545 171.72 259.816 171.771 259.145C171.821 258.478 171.789 257.867 171.627 257.406C171.469 256.94 171.231 256.585 170.847 256.255C170.042 255.559 168.886 255.253 167.76 255.419C167.196 255.492 166.643 255.691 166.145 255.971L165.961 256.081L165.72 256.24L165.216 256.577L164.208 257.251C162.846 258.123 161.561 259.104 160.261 260.063C159.601 260.529 158.987 261.056 158.358 261.561C157.734 262.074 157.1 262.574 156.483 263.095L154.677 264.708L153.771 265.511L152.899 266.351C148.232 270.808 144.009 275.742 140.462 281.128C136.901 286.497 133.876 292.23 131.628 298.254L130.788 300.514L130.05 302.807C129.542 304.337 129.101 305.873 128.782 307.353C128.127 310.313 128.105 313.154 129.111 315.466C129.595 316.563 130.344 317.507 131.231 318.105C131.676 318.405 132.138 318.64 132.649 318.754C133.165 318.885 133.664 318.966 134.17 318.915C135.172 318.858 136.248 318.438 137.313 317.702C138.376 316.968 139.39 315.951 140.318 314.822C141.245 313.687 142.092 312.426 142.855 311.106L143.416 310.096L143.987 309.011L145.131 306.84C145.885 305.388 146.603 303.92 147.341 302.461L149.447 298.031C154.915 286.149 159.417 273.823 162.797 261.19C163.626 258.029 164.417 254.857 165.113 251.664C165.46 250.067 165.815 248.472 166.115 246.865L166.587 244.459C166.723 243.704 166.843 242.967 166.917 242.233C167.068 240.777 167.112 239.328 166.901 238.092C166.695 236.851 166.292 235.853 165.718 235.295C165.454 234.978 165.089 234.781 164.682 234.569C164.224 234.402 163.762 234.227 163.251 234.205C162.246 234.115 161.137 234.351 160.144 234.883C160.011 234.953 159.916 235.007 159.76 235.104L159.259 235.431L158.255 236.084L156.247 237.387C154.925 238.282 153.672 239.275 152.366 240.198C151.096 241.168 149.882 242.213 148.635 243.215C147.424 244.261 146.269 245.371 145.08 246.444C140.474 250.898 136.302 255.831 132.719 261.179C125.519 271.855 120.564 284.102 118.369 296.957C118.238 297.734 117.501 298.259 116.724 298.127C115.995 298.002 115.49 297.333 115.543 296.607Z" fill="url(#paint14_linear)"/>
<path d="M263.939 253.248C263.465 253.248 263 253.012 262.73 252.579C262.312 251.912 262.514 251.031 263.181 250.613L277.429 241.688C278.097 241.27 278.977 241.472 279.395 242.14C279.813 242.807 279.611 243.686 278.944 244.106L264.698 253.031C264.459 253.178 264.198 253.248 263.939 253.248Z" fill="url(#paint15_linear)"/>
<path d="M331.312 406.155C335.712 406.534 343.347 407.152 349.366 407.418C352.984 407.577 355.067 407.222 356.268 406.743C356.267 406.879 356.262 407.006 356.256 407.124C356.227 407.758 355.713 408.265 355.073 408.3C343.7 408.936 334.654 408.519 331.433 408.324C330.767 408.283 330.37 407.56 330.712 406.992C330.881 406.707 331.087 406.429 331.312 406.155Z" fill="url(#paint16_linear)"/>
<path d="M349.365 407.417C343.345 407.152 335.71 406.534 331.31 406.153C335.636 400.846 349.365 397.269 349.365 397.269H353.242C355.909 401.114 356.295 404.773 356.265 406.74C355.068 407.222 352.985 407.576 349.365 407.417Z" fill="url(#paint17_linear)"/>
<path d="M353.896 390.941L353.534 398.122C353.494 398.899 352.913 399.554 352.134 399.665C351.36 399.776 350.322 399.79 349.222 399.424C348.545 399.199 348.043 398.628 347.917 397.932L346.664 390.943H353.896V390.941Z" fill="url(#paint18_linear)"/>
<path d="M404.258 407.363C406.166 407.097 407.029 406.105 407.392 405.046C407.395 405.056 407.396 405.065 407.399 405.075C407.679 406.193 407.029 407.351 405.728 407.902C404.156 408.568 402.437 408.68 401.102 408.626C399.67 408.568 398.356 407.975 397.633 407.027L397.623 407.012C399.058 407.723 401.076 407.807 404.258 407.363Z" fill="url(#paint19_linear)"/>
<path d="M395.263 390.895H398.461C403.331 390.795 406.39 401.068 407.392 405.046C407.029 406.105 406.166 407.097 404.258 407.363C401.077 407.807 399.06 407.722 397.622 407.012C394.992 403.549 393.687 398.479 393.059 395.518C392.345 392.152 395.263 390.895 395.263 390.895Z" fill="url(#paint20_linear)"/>
<path d="M398.049 384.231L399.825 391.293C400.043 392.159 399.628 393.055 398.828 393.465C397.834 393.975 396.436 394.511 395.151 394.356C394.546 394.283 394.044 393.858 393.845 393.288L391.238 385.858L398.049 384.231Z" fill="url(#paint21_linear)"/>
<path d="M400.167 386.271C397.958 388.232 390.773 388.49 390.773 388.49C364.891 326.369 354.302 317.543 354.302 317.543C358.04 340.991 354.905 392.902 354.905 392.902C350.634 394.786 345.127 392.902 345.127 392.902C344.78 354.514 338.88 321.037 331.909 294.645C349.403 294.252 358.706 288.266 361.744 285.863C376.327 309.372 400.167 386.271 400.167 386.271Z" fill="url(#paint22_linear)"/>
<path d="M357.301 214.421C360.612 230.937 359.425 260.498 358.646 273.982C358.427 277.772 361.072 283.025 363.211 286.61C363.547 287.172 363.339 287.892 362.757 288.192C359.176 290.032 347.048 295.735 332.992 296.443C332.054 296.49 331.217 295.852 330.974 294.946C320.548 256.012 308.436 231.135 308.436 231.135C321.807 209.782 357.301 214.421 357.301 214.421Z" fill="url(#paint23_linear)"/>
<path d="M352.536 316.072C352.684 316.072 352.833 316.033 352.967 315.951C353.357 315.711 353.481 315.203 353.244 314.813C353.106 314.584 349.758 309.172 342.982 305.904C342.57 305.707 342.074 305.878 341.874 306.29C341.676 306.702 341.848 307.198 342.261 307.397C348.578 310.444 351.797 315.624 351.829 315.676C351.984 315.93 352.257 316.072 352.536 316.072Z" fill="url(#paint24_linear)"/>
<path d="M378.071 261.823C377.007 269.516 373.865 277.91 367.579 286.824L365.189 284.876C365.189 284.876 367.948 273.684 366.379 260.982C370.256 260.225 374.837 261.005 378.071 261.823Z" fill="url(#paint25_linear)"/>
<path d="M353.602 234.801L357.301 214.423C357.301 214.423 382.012 233.311 378.071 261.824C374.837 261.006 370.257 260.226 366.379 260.983C365.249 251.832 361.874 241.899 353.602 234.801Z" fill="url(#paint26_linear)"/>
<path d="M308.05 231.298L322.329 248.878C323.871 261.28 318.725 268.111 312.264 271.864C310.446 266.493 307.942 262.416 305.882 259.679C312.46 248.244 308.05 231.298 308.05 231.298Z" fill="url(#paint27_linear)"/>
<path d="M305.881 259.679C307.94 262.416 310.444 266.494 312.263 271.864C295.502 283.767 287.118 276.413 287.118 276.413V274.062C287.118 271.978 288.501 270.123 290.517 269.594C297.261 267.824 303.482 263.849 305.881 259.679Z" fill="url(#paint28_linear)"/>
<path d="M317.225 205.774L321.829 222.702C322.346 224.604 324.403 225.625 326.233 224.893C328.208 224.104 330.713 223.026 332.87 221.862C335.172 220.619 335.892 217.658 334.436 215.485L324.863 201.209L317.225 205.774Z" fill="url(#paint29_linear)"/>
<path d="M307.15 192.912C307.108 193.203 310.99 212.23 310.99 212.23L321.807 209.782L320.807 191.202C320.807 191.202 307.853 188.046 307.15 192.912Z" fill="url(#paint30_linear)"/>
<path d="M318.374 195.343L319.667 205.083C319.683 205.208 319.683 205.331 319.666 205.455C319.556 206.219 318.988 208.818 316.364 208.074C313.984 207.399 311.801 206.82 310.294 207.281C309.617 207.489 309.208 208.174 309.35 208.868C309.704 210.596 310.571 214.477 311.839 217.733C312.096 218.393 312.821 218.74 313.501 218.542C315.552 217.944 319.844 216.561 323.036 214.64C323.468 214.38 323.725 213.91 323.705 213.406C323.601 210.948 323.313 203.473 323.556 201.378C323.782 199.412 326.197 198.234 327.245 197.811C327.589 197.673 327.859 197.402 327.996 197.058C328.481 195.841 329.152 193.025 325.602 191.871C324.86 191.63 324.469 190.829 324.732 190.093C325.257 188.629 325.479 186.397 322.733 185.166C319.943 183.916 317.859 185.403 316.734 186.612C316.28 187.101 315.549 187.176 314.984 186.818C314.663 186.615 314.249 186.548 313.748 186.86C313.075 187.28 312.182 186.995 311.833 186.28C311.166 184.909 309.803 183.439 307.071 183.908C302.225 184.738 301.675 190.109 302.954 193.257C304.232 196.405 309.436 195.205 312.047 193.619C314.032 192.413 316.607 193.678 317.726 194.352C318.085 194.567 318.319 194.931 318.374 195.343Z" fill="url(#paint31_linear)"/>
<path d="M323.991 204.929C323.991 204.929 321.998 199.349 324.045 197.982C326.091 196.615 329.124 197.325 328.456 201.367C327.627 206.396 323.991 204.929 323.991 204.929Z" fill="url(#paint32_linear)"/>
<path d="M404.149 239.183L222.24 298.881L230.923 325.685L413.88 267.442C417.766 266.205 420.195 262.36 419.66 258.317C419.111 254.164 417.241 248.459 412.152 241.686C410.3 239.224 407.075 238.224 404.149 239.183Z" fill="url(#paint33_linear)"/>
<path d="M173.917 327.627L195.493 314.791C197.572 317.518 199.401 321.715 199.51 328.066L174.653 329.951C173.333 330.053 172.781 328.304 173.917 327.627Z" fill="url(#paint34_linear)"/>
<path d="M222.239 298.883C233.312 311.321 230.921 325.687 230.921 325.687L199.51 328.068C199.401 321.717 197.572 317.52 195.493 314.793L222.239 298.883Z" fill="url(#paint35_linear)"/>
<path d="M407.355 246.982C407.528 246.848 407.606 246.615 407.533 246.396C407.441 246.119 407.142 245.967 406.864 246.059L233.063 303.481C232.784 303.573 232.633 303.872 232.725 304.15C232.817 304.427 233.117 304.579 233.394 304.487L407.196 247.065C407.256 247.046 407.31 247.017 407.355 246.982Z" fill="#91B3FA"/>
<path d="M411.368 257.029C411.54 256.895 411.619 256.662 411.546 256.443C411.454 256.166 411.155 256.014 410.877 256.106L237.075 313.528C236.796 313.62 236.646 313.919 236.738 314.197C236.83 314.474 237.129 314.626 237.407 314.534L411.209 257.112C411.268 257.093 411.323 257.064 411.368 257.029Z" fill="#91B3FA"/>
<path d="M366.173 284.537L355.019 283.628L350.189 288.082C350.189 288.082 351.331 289.662 354.904 288.754C358.477 287.845 363.372 287.623 363.372 287.623C363.372 287.623 368.305 289.847 368.364 285.686L366.173 284.537Z" fill="url(#paint36_linear)"/>
<path d="M294.535 281.069C293.571 281.823 290.266 280.25 288.243 279.162C287.257 278.631 286.779 277.479 287.118 276.413C287.604 274.877 288.415 272.897 289.414 272.647C291.074 272.232 298.511 277.964 294.535 281.069Z" fill="url(#paint37_linear)"/>
</g>
<defs>
<linearGradient id="paint0_linear" x1="436.945" y1="414.432" x2="138.456" y2="153.254" gradientUnits="userSpaceOnUse">
<stop stop-color="#DAE3FE"/>
<stop offset="1" stop-color="#E9EFFD"/>
</linearGradient>
<linearGradient id="paint1_linear" x1="45.0539" y1="109.725" x2="115.341" y2="109.725" gradientUnits="userSpaceOnUse">
<stop stop-color="#FEBBBA"/>
<stop offset="1" stop-color="#FF928E"/>
</linearGradient>
<linearGradient id="paint2_linear" x1="70.5541" y1="-10.0944" x2="6.86995" y2="275.98" gradientUnits="userSpaceOnUse">
<stop stop-color="#FF928E"/>
<stop offset="1" stop-color="#FE7062"/>
</linearGradient>
<linearGradient id="paint3_linear" x1="209.777" y1="120.353" x2="217.308" y2="415.571" gradientUnits="userSpaceOnUse">
<stop stop-color="#09005D"/>
<stop offset="1" stop-color="#1A0F91"/>
</linearGradient>
<linearGradient id="paint4_linear" x1="384.096" y1="102.362" x2="-326.834" y2="804.254" gradientUnits="userSpaceOnUse">
<stop stop-color="#4F52FF"/>
<stop offset="1" stop-color="#4042E2"/>
</linearGradient>
<linearGradient id="paint5_linear" x1="228.215" y1="184.712" x2="212.955" y2="350.535" gradientUnits="userSpaceOnUse">
<stop stop-color="#09005D"/>
<stop offset="1" stop-color="#1A0F91"/>
</linearGradient>
<linearGradient id="paint6_linear" x1="295.783" y1="62.5747" x2="316.122" y2="62.5747" gradientUnits="userSpaceOnUse">
<stop stop-color="#DAE3FE"/>
<stop offset="1" stop-color="#E9EFFD"/>
</linearGradient>
<linearGradient id="paint7_linear" x1="280.777" y1="62.4375" x2="330.795" y2="62.4375" gradientUnits="userSpaceOnUse">
<stop stop-color="#DAE3FE"/>
<stop offset="1" stop-color="#E9EFFD"/>
</linearGradient>
<linearGradient id="paint8_linear" x1="372.056" y1="93.0072" x2="385.911" y2="93.0072" gradientUnits="userSpaceOnUse">
<stop stop-color="#DAE3FE"/>
<stop offset="1" stop-color="#E9EFFD"/>
</linearGradient>
<linearGradient id="paint9_linear" x1="361.618" y1="92.9119" x2="396.126" y2="92.9119" gradientUnits="userSpaceOnUse">
<stop stop-color="#DAE3FE"/>
<stop offset="1" stop-color="#E9EFFD"/>
</linearGradient>
<linearGradient id="paint10_linear" x1="100.58" y1="117.322" x2="294.17" y2="117.322" gradientUnits="userSpaceOnUse">
<stop stop-color="#DAE3FE"/>
<stop offset="1" stop-color="#E9EFFD"/>
</linearGradient>
<linearGradient id="paint11_linear" x1="102.9" y1="140.205" x2="233.028" y2="140.205" gradientUnits="userSpaceOnUse">
<stop stop-color="#DAE3FE"/>
<stop offset="1" stop-color="#E9EFFD"/>
</linearGradient>
<linearGradient id="paint12_linear" x1="97.5413" y1="172.423" x2="291.132" y2="172.423" gradientUnits="userSpaceOnUse">
<stop stop-color="#DAE3FE"/>
<stop offset="1" stop-color="#E9EFFD"/>
</linearGradient>
<linearGradient id="paint13_linear" x1="99.8608" y1="195.306" x2="229.989" y2="195.306" gradientUnits="userSpaceOnUse">
<stop stop-color="#DAE3FE"/>
<stop offset="1" stop-color="#E9EFFD"/>
</linearGradient>
<linearGradient id="paint14_linear" x1="225.514" y1="196.226" x2="158.292" y2="324.605" gradientUnits="userSpaceOnUse">
<stop stop-color="#09005D"/>
<stop offset="1" stop-color="#1A0F91"/>
</linearGradient>
<linearGradient id="paint15_linear" x1="262.511" y1="247.359" x2="279.611" y2="247.359" gradientUnits="userSpaceOnUse">
<stop stop-color="#09005D"/>
<stop offset="1" stop-color="#1A0F91"/>
</linearGradient>
<linearGradient id="paint16_linear" x1="356.267" y1="407.396" x2="330.587" y2="407.396" gradientUnits="userSpaceOnUse">
<stop stop-color="#09005D"/>
<stop offset="1" stop-color="#1A0F91"/>
</linearGradient>
<linearGradient id="paint17_linear" x1="354.59" y1="388.602" x2="343.044" y2="407.679" gradientUnits="userSpaceOnUse">
<stop stop-color="#4F52FF"/>
<stop offset="1" stop-color="#4042E2"/>
</linearGradient>
<linearGradient id="paint18_linear" x1="353.896" y1="395.337" x2="346.662" y2="395.337" gradientUnits="userSpaceOnUse">
<stop stop-color="#FEBBBA"/>
<stop offset="1" stop-color="#FF928E"/>
</linearGradient>
<linearGradient id="paint19_linear" x1="407.462" y1="406.842" x2="397.621" y2="406.842" gradientUnits="userSpaceOnUse">
<stop stop-color="#09005D"/>
<stop offset="1" stop-color="#1A0F91"/>
</linearGradient>
<linearGradient id="paint20_linear" x1="412.1" y1="368.295" x2="398.043" y2="404.942" gradientUnits="userSpaceOnUse">
<stop stop-color="#4F52FF"/>
<stop offset="1" stop-color="#4042E2"/>
</linearGradient>
<linearGradient id="paint21_linear" x1="399.883" y1="389.306" x2="391.238" y2="389.306" gradientUnits="userSpaceOnUse">
<stop stop-color="#FEBBBA"/>
<stop offset="1" stop-color="#FF928E"/>
</linearGradient>
<linearGradient id="paint22_linear" x1="382.27" y1="292.227" x2="346.889" y2="397.358" gradientUnits="userSpaceOnUse">
<stop stop-color="#09005D"/>
<stop offset="1" stop-color="#1A0F91"/>
</linearGradient>
<linearGradient id="paint23_linear" x1="387.253" y1="133.92" x2="318.514" y2="301.723" gradientUnits="userSpaceOnUse">
<stop stop-color="#E1473D"/>
<stop offset="1" stop-color="#E9605A"/>
</linearGradient>
<linearGradient id="paint24_linear" x1="359.165" y1="285.726" x2="338.789" y2="330.075" gradientUnits="userSpaceOnUse">
<stop stop-color="#4F52FF"/>
<stop offset="1" stop-color="#4042E2"/>
</linearGradient>
<linearGradient id="paint25_linear" x1="269.924" y1="-323.766" x2="262.089" y2="-369.76" gradientUnits="userSpaceOnUse">
<stop stop-color="#FEBBBA"/>
<stop offset="1" stop-color="#FF928E"/>
</linearGradient>
<linearGradient id="paint26_linear" x1="407.049" y1="142.029" x2="338.311" y2="309.832" gradientUnits="userSpaceOnUse">
<stop stop-color="#E1473D"/>
<stop offset="1" stop-color="#E9605A"/>
</linearGradient>
<linearGradient id="paint27_linear" x1="364.531" y1="124.611" x2="295.792" y2="292.415" gradientUnits="userSpaceOnUse">
<stop stop-color="#E1473D"/>
<stop offset="1" stop-color="#E9605A"/>
</linearGradient>
<linearGradient id="paint28_linear" x1="310.981" y1="266.788" x2="286.265" y2="273.032" gradientUnits="userSpaceOnUse">
<stop stop-color="#FEBBBA"/>
<stop offset="1" stop-color="#FF928E"/>
</linearGradient>
<linearGradient id="paint29_linear" x1="326.144" y1="201.106" x2="326.409" y2="246.366" gradientUnits="userSpaceOnUse">
<stop stop-color="#FEBBBA"/>
<stop offset="1" stop-color="#FF928E"/>
</linearGradient>
<linearGradient id="paint30_linear" x1="311.459" y1="193.664" x2="329.299" y2="226.015" gradientUnits="userSpaceOnUse">
<stop stop-color="#FEBBBA"/>
<stop offset="1" stop-color="#FF928E"/>
</linearGradient>
<linearGradient id="paint31_linear" x1="327.283" y1="203.13" x2="300.945" y2="199.33" gradientUnits="userSpaceOnUse">
<stop stop-color="#09005D"/>
<stop offset="1" stop-color="#1A0F91"/>
</linearGradient>
<linearGradient id="paint32_linear" x1="340.419" y1="221.424" x2="325.351" y2="200.728" gradientUnits="userSpaceOnUse">
<stop stop-color="#FEBBBA"/>
<stop offset="1" stop-color="#FF928E"/>
</linearGradient>
<linearGradient id="paint33_linear" x1="206.495" y1="285.463" x2="530.225" y2="276.201" gradientUnits="userSpaceOnUse">
<stop stop-color="#09005D"/>
<stop offset="1" stop-color="#1A0F91"/>
</linearGradient>
<linearGradient id="paint34_linear" x1="225.245" y1="324.66" x2="179.655" y2="322.071" gradientUnits="userSpaceOnUse">
<stop stop-color="#09005D"/>
<stop offset="1" stop-color="#1A0F91"/>
</linearGradient>
<linearGradient id="paint35_linear" x1="174.504" y1="308.342" x2="355.68" y2="333.913" gradientUnits="userSpaceOnUse">
<stop stop-color="#FEBBBA"/>
<stop offset="1" stop-color="#FF928E"/>
</linearGradient>
<linearGradient id="paint36_linear" x1="255.678" y1="-321.339" x2="247.844" y2="-367.333" gradientUnits="userSpaceOnUse">
<stop stop-color="#FEBBBA"/>
<stop offset="1" stop-color="#FF928E"/>
</linearGradient>
<linearGradient id="paint37_linear" x1="295.69" y1="276.946" x2="287.011" y2="276.946" gradientUnits="userSpaceOnUse">
<stop stop-color="#FEBBBA"/>
<stop offset="1" stop-color="#FF928E"/>
</linearGradient>
<clipPath id="clip0">
<rect width="419.732" height="409" fill="white"/>
</clipPath>
</defs>
</svg>
