<svg width="450" height="454" viewBox="0 0 450 454" fill="none" xmlns="http://www.w3.org/2000/svg">
<path d="M393.435 382.386C384.43 391.87 375.909 397.988 369.176 402.821C290.043 459.628 196.406 443.07 176.505 439.025C147.118 433.053 90.3138 421.511 49.2468 373.191C-12.8853 300.089 -3.21062 184.917 44.9837 108.89C53.7998 94.9838 97.7437 25.0642 192.388 12.6871C249.666 5.19654 327.42 11.1133 375.771 51.6427C477.266 136.715 461.677 310.507 393.435 382.386Z" fill="url(#paint0_linear)"/>
<path d="M404.615 213.518C411.641 208.096 435.755 222.322 448.142 208.13L445.81 189.274C445.81 189.274 425.745 201.962 415.308 200.583C404.87 199.205 408.049 193.179 414.147 191.187C420.243 189.195 438.689 190.797 443.138 184.251C443.138 184.251 446.623 179.04 439.103 175.917C431.584 172.795 429.713 158.643 431.887 152.797C431.887 152.797 428.701 154.599 419.581 155.276C410.46 155.953 401.232 155.982 401.198 164.244C401.163 172.507 405.29 182.939 400.699 185.128C396.108 187.317 384.636 169.894 395.236 157.332C395.236 157.332 380.649 157.302 377.397 160.496C374.146 163.689 373.636 172.67 381.703 182.208C389.769 191.748 390.609 198.535 387.165 200.177C383.722 201.819 364.473 170.654 373.805 160.939C373.805 160.939 348.788 171.581 346.697 174.326C344.605 177.071 352.023 191.193 359.742 197.917C367.461 204.64 368.718 214.808 366.707 218.205C364.696 221.601 360.721 209.123 356.14 204.826C351.557 200.529 341.716 176.635 341.716 176.635C341.716 176.635 341.355 180.27 333.448 185.12C325.54 189.97 315.352 202.58 319.135 206.975C322.919 211.37 344.9 228.599 349.474 236.094C354.047 243.591 356.127 250.582 351.419 248.554C346.712 246.525 340.664 236.933 334.3 231.339C327.937 225.746 309.801 213.399 310.705 207.612C310.705 207.612 293.485 225.614 302.631 247.149C302.631 247.149 313.185 253.865 324.955 254.055C336.727 254.245 341.664 254.851 342.955 258.743C344.246 262.636 336.117 262.427 328.787 262.118C321.457 261.809 304.395 261.436 301.013 257.017C301.013 257.017 316.67 288.623 339.726 281.778C361.349 275.359 362.687 272.045 362.771 271.656C362.565 273.118 356.717 317.373 405.605 306.729C405.605 306.729 393.771 306.036 390.832 298.658C387.894 291.28 376.364 283.217 381.291 280.462C386.216 277.708 396.825 304.53 408.933 304.162C421.041 303.795 433.655 290.259 431.761 277.026C431.761 277.026 422.044 282.428 411.216 276.758C400.386 271.089 387.33 260.506 396.884 259.141C406.438 257.777 431.723 277.589 439.418 274.893C447.112 272.197 449.093 243.58 449.093 243.58C449.093 243.58 445.176 245.281 430.776 245.846C416.376 246.412 399.883 244.089 402.326 240.903C404.767 237.717 415.425 239.993 425.029 241.668C434.632 243.342 446.914 240.294 448.063 235.241C449.211 230.189 448.863 213.977 448.863 213.977C448.863 213.977 430.576 218.371 422.494 221.165C414.413 223.964 397.587 218.942 404.615 213.518ZM378.276 262.473C366.976 259.403 375.763 254.852 382.36 253.061C387.369 251.703 389.576 265.545 378.276 262.473ZM388.364 242.639C380.842 240.779 379.724 236.923 383.71 235.297C392.871 231.561 395.886 244.498 388.364 242.639ZM396.559 220.458C392.415 219.713 391.032 218.347 394.24 214.803C397.448 211.258 400.703 221.203 396.559 220.458Z" fill="#BDD0FB"/>
<path d="M234.943 303.489C234.943 303.489 174.686 115.284 72.5139 17.9825C65.6448 11.4413 54.2687 15.0503 52.4802 24.3668C40.5147 86.6643 22.824 274.184 234.943 303.489Z" fill="#91B3FA"/>
<path opacity="0.5" d="M214.893 292.608C215.397 293.03 214.833 293.802 214.279 293.451C193.808 280.553 113.499 215.599 74.9424 76.7296C74.8188 76.2842 75.4715 76.0592 75.6331 76.4934C87.5621 108.45 135.311 225.998 214.893 292.608Z" fill="white"/>
<path d="M203.416 355.586C203.416 355.586 120.895 222.684 23.6969 167.669C17.1637 163.971 9.12233 168.936 9.54214 176.434C12.3541 226.576 34.8892 373.981 203.416 355.586Z" fill="#BDD0FB"/>
<path opacity="0.5" d="M185.925 351.095C186.392 351.322 186.108 352.023 185.614 351.861C167.41 345.903 93.232 311.511 36.8774 212.31C36.6968 211.992 37.1547 211.694 37.3622 211.995C52.6766 234.235 111.984 315.292 185.925 351.095Z" fill="white"/>
<path d="M141.149 11.9437L377.384 14.5462C390.443 14.6905 400.684 25.9628 400.676 40.1262L400.466 390.483C400.459 400.285 392.529 408.414 382.962 408.457L129.694 409.574C120.757 409.614 113.427 402.136 113.427 392.956V41.8268C113.427 25.1909 125.838 11.7757 141.149 11.9437Z" fill="url(#paint1_linear)"/>
<path d="M366.054 30.7701H151.228C142.218 30.7701 135.92 37.7994 135.92 46.5802V359.402C135.92 368.183 142.218 374.928 151.228 374.928H366.054C375.063 374.928 382.23 368.181 382.23 359.402V46.5786C382.23 37.7994 375.063 30.7701 366.054 30.7701Z" fill="#7D97F4"/>
<path opacity="0.5" d="M357.903 44.0474H160.4C152.118 44.0474 145.474 50.6726 145.474 58.6577V343.162C145.474 351.148 152.118 357.4 160.4 357.4H357.903C366.185 357.4 373.207 351.148 373.207 343.162V58.6577C373.207 50.6726 366.185 44.0474 357.903 44.0474Z" fill="white"/>
<path d="M226.162 89.5235C226.162 90.8073 225.121 91.8471 223.839 91.8471H149.389C148.105 91.8471 147.066 90.8057 147.066 89.5235V89.3919C147.066 88.1081 148.107 87.0684 149.389 87.0684H223.839C225.123 87.0684 226.162 88.1097 226.162 89.3919V89.5235Z" fill="white"/>
<path d="M226.162 102.801C226.162 104.085 225.121 105.124 223.839 105.124H149.389C148.105 105.124 147.066 104.083 147.066 102.801V102.669C147.066 101.385 148.107 100.346 149.389 100.346H223.839C225.123 100.346 226.162 101.387 226.162 102.669V102.801Z" fill="white"/>
<path d="M226.162 115.016C226.162 116.3 225.121 117.34 223.839 117.34H149.389C148.105 117.34 147.066 116.299 147.066 115.016V114.885C147.066 113.601 148.107 112.561 149.389 112.561H223.839C225.123 112.561 226.162 113.602 226.162 114.885V115.016Z" fill="white"/>
<g opacity="0.8">
<path opacity="0.8" d="M321.442 181.121H285.175C281.736 181.121 278.921 183.935 278.921 187.378V209.936C279.664 209.765 280.408 209.577 281.145 209.351C286.558 207.692 291.282 204.758 295.189 200.925C295.304 196.188 299.17 192.382 303.932 192.382C308.768 192.382 312.686 196.302 312.686 201.14C312.686 205.978 308.768 209.898 303.932 209.898C302.47 209.898 301.092 209.533 299.881 208.898C295.35 213.096 289.97 216.324 283.855 218.196C282.218 218.697 280.571 219.087 278.921 219.375V301.235C278.921 304.675 281.734 307.492 285.175 307.492H321.442C324.881 307.492 327.697 304.678 327.697 301.235V187.375C327.697 183.935 324.881 181.121 321.442 181.121Z" fill="white"/>
<path opacity="0.8" d="M268.291 207.395C252.407 207.395 238.629 198.225 231.948 184.902C230.355 186.809 227.964 188.021 225.288 188.021C225.231 188.021 225.174 188.013 225.114 188.013C232.982 203.927 249.376 214.9 268.291 214.9C289.831 214.9 308.114 200.672 314.243 181.118H306.298C300.48 196.46 285.641 207.395 268.291 207.395Z" fill="white"/>
<path opacity="0.8" d="M235.577 154.975C233.699 159.355 232.65 164.171 232.65 169.233C232.65 171.172 232.827 173.068 233.127 174.923C233.66 176.095 233.965 177.389 233.965 178.759C233.965 178.786 233.963 178.813 233.96 178.843C233.965 178.871 233.971 178.895 233.979 178.922C233.971 178.941 233.963 178.96 233.954 178.98C233.837 183.995 229.748 188.024 224.708 188.024C219.595 188.024 215.451 183.877 215.451 178.762C215.451 173.646 219.595 169.5 224.708 169.5C224.858 169.5 225.005 169.516 225.154 169.521C225.152 169.426 225.146 169.331 225.146 169.233C225.146 163.765 226.17 158.535 228.011 153.705C227.063 153.637 226.11 153.591 225.146 153.591C203.046 153.591 185.127 171.515 185.127 193.63C185.127 210.429 195.476 224.807 210.138 230.748V302.485L223.894 320.001L238.902 302.485V286.636L230.148 276.208L238.902 268.259V263.28L233.9 256.189L238.902 249.934V231.239C254.228 225.627 265.163 210.906 265.163 193.63C265.166 175.13 252.622 159.568 235.577 154.975Z" fill="white"/>
<path opacity="0.8" d="M268.291 118.559C241.744 118.559 220.145 140.169 220.145 166.729C220.145 172.575 221.212 178.173 223.129 183.363C223.27 183.368 223.409 183.393 223.551 183.393C226.121 183.393 228.446 182.344 230.123 180.652C228.533 176.307 227.649 171.625 227.649 166.732C227.649 144.31 245.88 126.066 268.294 126.066C290.708 126.066 308.939 144.31 308.939 166.732C308.939 169.077 308.73 171.374 308.346 173.613H315.945C316.269 171.363 316.443 169.069 316.443 166.732C316.441 140.169 294.841 118.559 268.291 118.559Z" fill="white"/>
</g>
<path d="M373.172 49.8357C373.172 46.4233 370.407 43.6575 366.996 43.6575H151.945C148.535 43.6575 145.77 46.4233 145.77 49.8357V71.1346C145.77 74.5471 148.535 77.3129 151.945 77.3129H366.996C370.407 77.3129 373.172 74.5471 373.172 71.1346V49.8357V49.8357Z" fill="url(#paint2_linear)"/>
<path d="M166.292 52.3019C163.546 49.8215 159.28 50.0719 156.801 52.8187C154.322 55.5654 154.501 59.8417 157.246 62.3222C159.664 64.5078 163.374 64.4492 165.714 62.7533L167.562 64.4238C167.585 64.9199 167.724 65.5222 168.145 65.9026L174.308 71.4722C175.087 72.176 176.261 71.9255 176.965 71.1457L177.006 71.0998C177.709 70.3199 177.692 69.2897 176.912 68.586L170.75 63.0164C170.328 62.636 169.715 62.5567 169.457 62.3237L167.608 60.6532C169.056 58.1537 168.709 54.4876 166.292 52.3019ZM158.498 61.3981C156.381 59.4851 156.215 56.2168 158.127 54.0993C160.039 51.9818 163.306 51.8154 165.422 53.7284C167.539 55.6415 167.705 58.9097 165.793 61.0272C163.881 63.1464 160.614 63.3112 158.498 61.3981Z" fill="white"/>
<path d="M159.7 59.7387C159.684 59.7562 159.667 59.7736 159.648 59.7879C159.424 59.9765 159.09 59.9495 158.902 59.726C157.667 58.2663 157.704 56.0933 158.987 54.6731C159.184 54.456 159.518 54.4386 159.735 54.6351C159.952 54.8316 159.969 55.1661 159.773 55.3832C158.845 56.4119 158.818 57.9841 159.71 59.0413C159.884 59.2474 159.876 59.5454 159.7 59.7387Z" fill="white"/>
<path d="M366.837 66.2054C366.837 68.3403 365.107 70.0727 362.971 70.0727H190.744C188.61 70.0727 186.878 68.3419 186.878 66.2054V54.2879C186.878 52.153 188.608 50.4206 190.744 50.4206H362.971C365.105 50.4206 366.837 52.1514 366.837 54.2879V66.2054Z" fill="white"/>
<path d="M194.125 65.9819C194.125 66.4304 193.76 66.795 193.312 66.795H193.185C192.737 66.795 192.372 66.4304 192.372 65.9819V54.9869C192.372 54.5383 192.737 54.1738 193.185 54.1738H193.312C193.76 54.1738 194.125 54.5383 194.125 54.9869V65.9819Z" fill="#91B3FA"/>
<path d="M131.703 119.621C162.58 119.621 187.61 94.5776 187.61 63.6853C187.61 32.7931 162.58 7.74994 131.703 7.74994C100.826 7.74994 75.7947 32.7931 75.7947 63.6853C75.7947 94.5776 100.826 119.621 131.703 119.621Z" fill="url(#paint3_linear)"/>
<path d="M131.703 117.76C161.552 117.76 185.75 93.5499 185.75 63.6853C185.75 33.8208 161.552 9.61072 131.703 9.61072C101.853 9.61072 77.6545 33.8208 77.6545 63.6853C77.6545 93.5499 101.853 117.76 131.703 117.76Z" fill="url(#paint4_linear)"/>
<path opacity="0.78" d="M87.1328 42.9522C86.8714 42.9522 86.6053 42.8936 86.355 42.7668C85.5027 42.3373 85.1605 41.2959 85.5898 40.4416C94.4296 22.9213 112.098 12.0373 131.703 12.0373C134.83 12.0373 137.963 12.3194 141.013 12.8757C141.952 13.0469 142.576 13.9488 142.405 14.8887C142.234 15.8286 141.334 16.4499 140.393 16.2819C137.547 15.762 134.622 15.4989 131.703 15.4989C113.413 15.4989 96.9263 25.6538 88.679 42.0028C88.3732 42.6051 87.7649 42.9522 87.1328 42.9522Z" fill="white"/>
<path opacity="0.78" d="M165.225 97.2258C183.089 79.3526 183.089 50.3743 165.225 32.5011C147.36 14.6278 118.396 14.6278 100.532 32.5011C82.6674 50.3743 82.6674 79.3526 100.532 97.2258C118.396 115.099 147.36 115.099 165.225 97.2258Z" fill="white"/>
<path d="M128.39 98.8876V93.9076C123.202 93.7 118.071 92.4748 114.425 90.8787C113.123 90.3081 112.461 88.8468 112.835 87.4758L114.099 82.8382C114.563 81.1359 116.412 80.2562 118.037 80.9378C121.652 82.4546 126.117 83.6544 130.931 83.6544C135.928 83.6544 139.655 81.9601 139.655 78.4858C139.655 75.3507 136.775 73.4868 129.83 71.6229C119.921 68.911 112.806 64.5888 112.806 55.8619C112.806 47.9814 118.566 41.9648 128.559 40.3545V35.3745C128.559 33.7721 129.857 32.474 131.459 32.474H134.383C135.985 32.474 137.284 33.7737 137.284 35.3745V39.8457C142.084 40.0375 145.578 40.8601 148.352 41.8349C149.773 42.3341 150.55 43.8652 150.155 45.3202L148.992 49.6092C148.544 51.2639 146.778 52.1689 145.174 51.5634C142.621 50.5966 139.01 49.5917 134.318 49.5917C128.388 49.5917 126.695 52.0484 126.695 54.2516C126.695 56.9634 130.251 58.8274 137.96 61.2001C148.97 64.5048 153.544 69.0806 153.544 77.3003C153.544 84.8416 147.955 91.6205 137.113 93.3164V98.8892C137.113 100.492 135.815 101.791 134.213 101.791H131.289C129.689 101.788 128.39 100.49 128.39 98.8876Z" fill="url(#paint5_linear)"/>
<path d="M49.6872 184.518C73.808 184.518 93.3618 164.954 93.3618 140.821C93.3618 116.689 73.808 97.1251 49.6872 97.1251C25.5664 97.1251 6.01257 116.689 6.01257 140.821C6.01257 164.954 25.5664 184.518 49.6872 184.518Z" fill="url(#paint6_linear)"/>
<path d="M49.6872 183.064C73.0057 183.064 91.9091 164.151 91.9091 140.821C91.9091 117.491 73.0057 98.5786 49.6872 98.5786C26.3687 98.5786 7.46527 117.491 7.46527 140.821C7.46527 164.151 26.3687 183.064 49.6872 183.064Z" fill="url(#paint7_linear)"/>
<path opacity="0.78" d="M14.8714 124.626C14.667 124.626 14.4595 124.58 14.263 124.48C13.5961 124.144 13.33 123.331 13.6658 122.664C20.5713 108.976 34.3744 100.474 49.6872 100.474C52.13 100.474 54.5776 100.694 56.9602 101.129C57.6953 101.264 58.1817 101.967 58.047 102.701C57.9123 103.437 57.2105 103.922 56.4755 103.788C54.2513 103.383 51.9669 103.177 49.6856 103.177C35.3978 103.177 22.5199 111.109 16.0754 123.881C15.8409 124.355 15.3656 124.626 14.8714 124.626Z" fill="white"/>
<path opacity="0.78" d="M75.8745 167.022C89.8302 153.059 89.8308 130.422 75.8756 116.46C61.9205 102.498 39.2943 102.498 25.3386 116.461C11.3828 130.424 11.3823 153.061 25.3374 167.023C39.2926 180.985 61.9188 180.985 75.8745 167.022Z" fill="white"/>
<path d="M47.1002 168.321V164.431C43.0479 164.269 39.0383 163.312 36.1915 162.065C35.1744 161.619 34.6564 160.478 34.9479 159.407L35.9348 155.783C36.2976 154.454 37.7424 153.767 39.0113 154.3C41.8359 155.484 45.3228 156.422 49.0836 156.422C52.9871 156.422 55.8988 155.099 55.8988 152.384C55.8988 149.935 53.6493 148.478 48.2234 147.022C40.4831 144.903 34.9241 141.527 34.9241 134.71C34.9241 128.554 39.4232 123.853 47.2301 122.596V118.706C47.2301 117.454 48.244 116.44 49.4955 116.44H51.7799C53.0314 116.44 54.0453 117.454 54.0453 118.706V122.199C57.7951 122.35 60.5247 122.992 62.6918 123.753C63.8024 124.143 64.4091 125.339 64.1002 126.476L63.1924 129.826C62.8423 131.118 61.4625 131.827 60.2094 131.353C58.2149 130.598 55.3951 129.812 51.7292 129.812C47.0971 129.812 45.7743 131.731 45.7743 133.453C45.7743 135.572 48.5529 137.027 54.5744 138.881C63.1766 141.463 66.749 145.037 66.749 151.458C66.749 157.349 62.3829 162.645 53.9138 163.97V168.322C53.9138 169.574 52.9 170.589 51.6484 170.589H49.364C48.1157 170.587 47.1002 169.573 47.1002 168.321Z" fill="url(#paint8_linear)"/>
<path d="M141.277 226.931C161.707 226.931 178.268 210.362 178.268 189.922C178.268 169.483 161.707 152.913 141.277 152.913C120.848 152.913 104.286 169.483 104.286 189.922C104.286 210.362 120.848 226.931 141.277 226.931Z" fill="url(#paint9_linear)"/>
<path d="M141.277 225.702C161.028 225.702 177.039 209.683 177.039 189.922C177.039 170.162 161.028 154.143 141.277 154.143C121.527 154.143 105.516 170.162 105.516 189.922C105.516 209.683 121.527 225.702 141.277 225.702Z" fill="url(#paint10_linear)"/>
<path opacity="0.78" d="M111.788 176.204C111.615 176.204 111.439 176.165 111.273 176.081C110.709 175.795 110.482 175.108 110.767 174.543C116.616 162.951 128.306 155.749 141.277 155.749C143.346 155.749 145.42 155.936 147.438 156.303C148.061 156.418 148.473 157.013 148.359 157.635C148.245 158.258 147.651 158.668 147.028 158.556C145.144 158.212 143.21 158.037 141.277 158.037C129.176 158.037 118.269 164.756 112.811 175.574C112.61 175.975 112.207 176.204 111.788 176.204Z" fill="white"/>
<path opacity="0.78" d="M163.457 212.114C175.277 200.288 175.277 181.115 163.457 169.289C151.637 157.463 132.473 157.463 120.653 169.289C108.833 181.115 108.833 200.288 120.653 212.114C132.473 223.94 151.637 223.94 163.457 212.114Z" fill="white"/>
<path d="M139.086 213.213V209.918C135.653 209.78 132.259 208.97 129.847 207.913C128.986 207.536 128.547 206.569 128.794 205.663L129.63 202.594C129.938 201.469 131.161 200.886 132.236 201.337C134.628 202.341 137.583 203.135 140.767 203.135C144.073 203.135 146.54 202.012 146.54 199.714C146.54 197.639 144.634 196.406 140.04 195.173C133.483 193.379 128.776 190.52 128.776 184.744C128.776 179.53 132.588 175.548 139.2 174.483V171.188C139.2 170.127 140.059 169.268 141.119 169.268H143.053C144.113 169.268 144.972 170.127 144.972 171.188V174.145C148.148 174.272 150.461 174.816 152.295 175.461C153.235 175.792 153.75 176.805 153.488 177.767L152.718 180.606C152.422 181.701 151.253 182.3 150.193 181.899C148.504 181.26 146.115 180.595 143.01 180.595C139.088 180.595 137.966 182.221 137.966 183.679C137.966 185.473 140.32 186.706 145.42 188.277C152.706 190.464 155.732 193.492 155.732 198.93C155.732 203.919 152.032 208.405 144.859 209.527V213.213C144.859 214.274 144.001 215.133 142.941 215.133H141.006C139.945 215.133 139.086 214.274 139.086 213.213Z" fill="url(#paint11_linear)"/>
<path d="M328.344 221.969C328.146 222.598 330.44 223.559 331.789 220.981C331.837 219.747 332.588 214.458 331.849 213.451C327.922 208.094 320.307 201.379 320.307 201.379C319.021 202.65 320.08 203.897 320.08 203.897L323.775 207.747C323.002 209.143 322.059 210.323 321.619 212.012C321.284 213.291 321.489 214.659 322.135 215.824C322.783 216.992 323.669 218.512 324.505 219.701C326.086 221.952 328.344 221.969 328.344 221.969Z" fill="url(#paint12_linear)"/>
<path d="M325.391 210.245L328.757 213.099L329.814 215.941L326.812 219.273C326.812 219.273 325.803 213.632 325.053 212.412C324.304 211.193 324.692 210.601 325.391 210.245Z" fill="url(#paint13_linear)"/>
<path d="M394.468 432.232C394.468 432.232 395.319 437.049 395.735 441.816C395.898 443.68 394.462 445.297 392.594 445.376C386.248 445.641 372.671 446.154 367.8 445.937C367.068 445.904 366.588 445.154 366.86 444.473C367.087 443.902 367.525 443.439 368.083 443.184L390.507 432.872L394.468 432.232Z" fill="url(#paint14_linear)"/>
<path d="M395.165 429.401L394.482 435.162C394.482 435.162 390.553 436.991 387.871 434.933L389.498 428.512L395.165 429.401Z" fill="url(#paint15_linear)"/>
<path d="M394.652 321.081C394.946 322.585 396.236 396.164 388.375 429.138C388.247 429.675 388.519 430.23 389.031 430.439C390.237 430.932 392.6 431.645 395.433 431.74C396.31 431.771 397.096 431.2 397.345 430.357C399.591 422.706 410.359 384.377 411.764 347.76C413.334 306.846 411.764 346.367 411.764 346.367L410.844 321.076L394.652 321.081Z" fill="url(#paint16_linear)"/>
<path d="M420.265 434.744C420.265 434.744 421.618 437.175 422.93 443.637C423.166 444.804 422.351 445.921 421.166 446.037C419.07 446.243 415.845 446.508 413.26 446.49C412.068 446.482 411.138 445.444 411.283 444.262C411.569 441.903 412.461 438.033 415.216 435.018L420.265 434.744Z" fill="url(#paint17_linear)"/>
<path d="M421.453 427.334L419.856 436.047C419.856 436.047 418.278 437.221 415.154 436.37L415.916 426.995L421.453 427.334Z" fill="url(#paint18_linear)"/>
<path d="M425.767 323.339C432.196 362.16 424.373 419.289 421.734 430.469C421.572 431.154 421.019 431.679 420.327 431.793C419.148 431.988 417.209 432.148 415.298 431.591C414.639 431.4 414.177 430.805 414.15 430.121C413.797 421.081 414.434 365.585 408.442 343.654C408.138 342.543 407.46 341.573 406.522 340.906L394.894 332.635L394.002 319.267L425.767 323.339Z" fill="url(#paint19_linear)"/>
<path d="M384.798 249.78C404.065 249.462 425.325 254.841 425.325 254.841C431.068 288.37 426.329 327.042 426.329 327.042C411.412 330.955 394.585 324.648 394.585 324.648C392.106 310.634 380.538 271.193 380.538 271.193C371.123 270.025 363.369 267.307 356.983 263.714C361.854 258.065 364.151 250.876 365.148 246.626C371.961 248.749 378.856 249.879 384.798 249.78Z" fill="url(#paint20_linear)"/>
<path d="M327.884 221.387C329.777 219.1 332.173 220.183 332.173 220.183C335.008 232.165 349.874 241.881 365.149 246.631C364.151 250.88 361.856 258.07 356.984 263.719C331.636 249.459 327.884 221.387 327.884 221.387Z" fill="url(#paint21_linear)"/>
<path d="M417.935 273.509L425.325 254.843C425.325 254.843 443.321 267.077 446.282 282.589C442.881 282.84 436.693 283.724 430.637 286.785C429.306 279.459 417.935 273.509 417.935 273.509Z" fill="url(#paint22_linear)"/>
<path d="M404.315 234.13L410.446 251.869C410.548 252.163 410.427 252.489 410.155 252.64C408.483 253.564 402.463 256.236 395.206 251.633C394.451 251.155 393.936 250.372 393.822 249.484L391.837 234.132H404.315V234.13Z" fill="url(#paint23_linear)"/>
<path d="M390.975 217.705C390.975 217.705 384.242 230.384 385.105 235.506C385.969 240.627 394.311 240.26 401.597 236.101L406.688 222.411L390.975 217.705Z" fill="url(#paint24_linear)"/>
<path d="M401.277 229.376C400.98 229.244 400.871 228.883 401.049 228.61C401.589 227.786 402.6 226.104 402.921 224.632C402.921 224.632 404.131 223.857 399.841 222.828C395.551 221.801 389.153 220.205 387.808 216.552C386.496 212.988 389.942 204.03 395.439 211.169C395.648 211.44 396.058 211.446 396.266 211.175C397.167 210.002 399.536 207.566 402.824 209.043C405.903 210.426 406.249 212.681 406.207 213.819C406.194 214.153 406.493 214.413 406.821 214.352C408.377 214.055 412.111 213.8 413.855 217.632C415.29 220.79 414.357 222.576 413.508 223.451C413.233 223.735 413.353 224.201 413.732 224.316C414.753 224.63 416.075 225.497 415.943 227.894C415.761 231.208 412.057 230.916 411.002 230.764C410.829 230.739 410.655 230.799 410.538 230.927C409.633 231.929 405.56 236.178 401.152 236.69C400.77 236.735 400.473 236.357 400.599 235.994L402.506 230.445C402.595 230.187 402.471 229.905 402.222 229.794L401.277 229.376Z" fill="url(#paint25_linear)"/>
<path d="M400.508 230.163C400.508 230.163 405.302 226.873 405.652 229.643C406.002 232.414 401.335 233.657 399.024 232.623L400.508 230.163Z" fill="url(#paint26_linear)"/>
<path d="M430.637 286.783C430.637 286.783 436.928 315.175 431.229 331.137C438.214 334.377 436.924 333.767 436.924 333.767C436.924 333.767 450.743 293.369 446.282 282.588C437.487 281.654 433.122 284.019 430.637 286.783Z" fill="url(#paint27_linear)"/>
<path d="M431.229 331.137C431.229 331.137 427.63 335.799 427.918 337.655C428.206 339.511 428.275 340.268 428.275 340.268C428.275 340.268 430.084 339.03 429.97 337.449C429.718 342.468 428.039 348.176 429.566 347.9C431.093 347.624 438.996 340.337 437.209 332.565C433.154 329.747 432.018 330.055 431.229 331.137Z" fill="url(#paint28_linear)"/>
<path d="M74.6225 325.897L64.105 334.334C61.1838 336.677 62.7315 341.685 66.3704 341.666L239.272 340.647L192.464 312.682H111.626C98.2967 312.682 85.3205 317.315 74.6225 325.897Z" fill="url(#paint29_linear)"/>
<path d="M332.149 401.142C331.998 399.724 331.843 398.304 331.688 396.898C330.088 382.464 322.726 369.506 311.52 361.442L310.651 360.818C297.154 351.105 281.648 345.129 265.503 343.422L239.272 340.647L66.3703 341.666C62.7314 341.684 61.1853 336.677 64.1049 334.334L74.6224 325.897C85.322 317.315 98.2966 312.682 111.626 312.682H192.461L191.854 312.409C186.997 310.222 181.787 309.097 176.524 309.097H100.4C95.7745 309.097 91.1756 309.845 86.7557 311.316L29.4998 334.187C26.6704 335.128 24.1436 336.913 22.2109 339.333L10.3833 354.151C7.9215 357.235 6.56702 361.171 6.56702 365.243V389.39C6.56702 395.78 27.5053 417.617 27.5053 417.617C29.7865 418.87 32.3086 419.523 34.8686 419.523H292.083L319.401 417.602C327.227 417.051 333.044 409.549 332.149 401.142Z" fill="url(#paint30_linear)"/>
<path d="M331.24 412.082H330.422C328.83 412.082 327.539 410.689 327.539 408.971V393.337C327.539 391.618 328.83 390.225 330.422 390.225C331.951 390.225 333.214 391.514 333.301 393.161L334.118 408.795C334.212 410.579 332.897 412.082 331.24 412.082Z" fill="#91B3FA"/>
<path d="M321.096 387.223H329.679C326.484 376.769 320.147 367.652 311.518 361.442L310.65 360.817C309.755 360.174 308.852 359.549 307.939 358.939C309.691 365.538 311.852 374.583 313.275 380.655C314.181 384.521 317.402 387.223 321.096 387.223Z" fill="white"/>
<path d="M29.5015 352.065V334.185C26.6721 335.127 24.1453 336.911 22.2126 339.332L10.385 354.149C8.33032 356.723 7.05979 359.895 6.69226 363.241L22.8368 360.483C26.6753 359.828 29.5015 356.258 29.5015 352.065Z" fill="#BDD0FB"/>
<path d="M210.86 339.859L204.781 333.483C202.248 330.827 199.059 329.013 195.598 328.259L183.574 325.642C180.274 324.924 177.117 327.42 176.755 331.033L176.67 331.881C176.302 335.559 178.994 338.759 182.422 338.718L197.912 338.528C200.073 338.501 202.036 339.88 202.888 342.023L203.173 342.739C203.552 343.69 204.419 344.307 205.379 344.307H209.187C211.343 344.307 212.405 341.479 210.86 339.859Z" fill="url(#paint31_linear)"/>
<path d="M148.574 351.409H175.086C177.153 351.409 178.612 353.628 177.894 355.72C176.681 359.263 173.791 363.78 166.925 364.308C160.749 364.781 152.964 361.008 147.093 357.421C144.432 355.796 145.515 351.409 148.574 351.409Z" fill="url(#paint32_linear)"/>
<path d="M70.5114 448.164C89.8403 448.164 105.509 432.487 105.509 413.149C105.509 393.81 89.8403 378.133 70.5114 378.133C51.1826 378.133 35.5134 393.81 35.5134 413.149C35.5134 432.487 51.1826 448.164 70.5114 448.164Z" fill="url(#paint33_linear)"/>
<path d="M90.6052 433.254C101.705 422.149 101.705 404.144 90.6052 393.039C79.5059 381.935 61.5102 381.935 50.4108 393.039C39.3114 404.144 39.3114 422.149 50.4108 433.254C61.5102 444.359 79.5059 444.359 90.6052 433.254Z" fill="#91B3FA"/>
<path d="M276.93 448.164C296.259 448.164 311.928 432.487 311.928 413.149C311.928 393.81 296.259 378.133 276.93 378.133C257.601 378.133 241.932 393.81 241.932 413.149C241.932 432.487 257.601 448.164 276.93 448.164Z" fill="url(#paint34_linear)"/>
<path d="M297.023 433.255C308.122 422.15 308.122 404.146 297.023 393.041C285.923 381.936 267.928 381.936 256.828 393.041C245.729 404.146 245.729 422.15 256.828 433.255C267.928 444.36 285.923 444.36 297.023 433.255Z" fill="#91B3FA"/>
<path d="M300.118 423.437C300.055 423.437 299.991 423.424 299.928 423.399C299.681 423.294 299.565 423.009 299.67 422.76C300.956 419.717 301.609 416.483 301.609 413.15C301.609 399.537 290.539 388.461 276.93 388.461C272.708 388.461 268.544 389.545 264.884 391.598C264.65 391.729 264.353 391.645 264.222 391.411C264.09 391.176 264.174 390.88 264.409 390.748C268.214 388.615 272.544 387.488 276.932 387.488C291.077 387.488 302.583 399.001 302.583 413.152C302.583 416.617 301.905 419.977 300.566 423.142C300.487 423.324 300.308 423.437 300.118 423.437Z" fill="url(#paint35_linear)"/>
<path d="M94.3853 423.437C94.3219 423.437 94.2585 423.424 94.1952 423.399C93.948 423.294 93.8324 423.009 93.9369 422.76C95.2233 419.717 95.876 416.483 95.876 413.15C95.876 399.537 84.8057 388.461 71.1974 388.461C66.9756 388.461 62.8107 389.545 59.1512 391.598C58.9168 391.729 58.6205 391.645 58.4891 391.411C58.3576 391.176 58.4415 390.88 58.676 390.748C62.4812 388.615 66.8108 387.488 71.199 387.488C85.3443 387.488 96.8503 399.001 96.8503 413.152C96.8503 416.617 96.1722 419.977 94.8336 423.142C94.756 423.324 94.5754 423.437 94.3853 423.437Z" fill="url(#paint36_linear)"/>
<path opacity="0.7" d="M112.86 402.352C112.63 402.352 112.426 402.189 112.382 401.956C109.272 385.597 99.9537 375.185 84.6868 371.01C73.2569 367.885 62.5937 369.625 62.4875 369.643C62.223 369.689 61.9711 369.51 61.9267 369.243C61.8824 368.979 62.0614 368.727 62.3259 368.682C62.4337 368.663 73.2807 366.89 84.9134 370.061C95.6891 373 109.369 380.888 113.339 401.772C113.389 402.036 113.215 402.292 112.95 402.341C112.922 402.349 112.89 402.352 112.86 402.352Z" fill="white"/>
<path opacity="0.7" d="M234.184 407.687C233.923 407.687 233.706 407.479 233.698 407.215C233.294 394.31 236.749 384.202 243.968 377.173C255.884 365.568 274.167 366.493 274.351 366.503C274.619 366.519 274.825 366.748 274.809 367.018C274.793 367.286 274.571 367.485 274.294 367.476C274.115 367.465 256.245 366.571 244.641 377.877C237.631 384.708 234.276 394.568 234.67 407.184C234.678 407.454 234.468 407.679 234.198 407.687C234.193 407.687 234.189 407.687 234.184 407.687Z" fill="white"/>
<path d="M67.473 337.772C67.3035 337.772 67.1387 337.683 67.05 337.526C66.917 337.292 66.9993 336.995 67.2322 336.862L90.6751 323.517C97.3446 319.721 104.925 317.641 112.596 317.503L139.486 317.02C139.747 317.023 139.977 317.229 139.982 317.499C139.986 317.768 139.772 317.99 139.503 317.995L112.613 318.478C105.104 318.613 97.6852 320.648 91.1567 324.365L67.7138 337.71C67.6378 337.751 67.5554 337.772 67.473 337.772Z" fill="#91B3FA"/>
<defs>
<linearGradient id="paint0_linear" x1="503.514" y1="571.258" x2="113.274" y2="86.8437" gradientUnits="userSpaceOnUse">
<stop stop-color="#DAE3FE"/>
<stop offset="1" stop-color="#E9EFFD"/>
</linearGradient>
<linearGradient id="paint1_linear" x1="405.198" y1="18.9761" x2="27.4223" y2="514.929" gradientUnits="userSpaceOnUse">
<stop stop-color="#09005D"/>
<stop offset="1" stop-color="#1A0F91"/>
</linearGradient>
<linearGradient id="paint2_linear" x1="259.935" y1="35.1456" x2="257.304" y2="178.693" gradientUnits="userSpaceOnUse">
<stop stop-color="#4F52FF"/>
<stop offset="1" stop-color="#4042E2"/>
</linearGradient>
<linearGradient id="paint3_linear" x1="55.1979" y1="152.528" x2="130.23" y2="65.4805" gradientUnits="userSpaceOnUse">
<stop stop-color="#FF928E"/>
<stop offset="1" stop-color="#FE7062"/>
</linearGradient>
<linearGradient id="paint4_linear" x1="172.561" y1="1.92783" x2="-49.3369" y2="336.987" gradientUnits="userSpaceOnUse">
<stop stop-color="#FF928E"/>
<stop offset="1" stop-color="#FE7062"/>
</linearGradient>
<linearGradient id="paint5_linear" x1="135.716" y1="-33.8045" x2="132.528" y2="92.062" gradientUnits="userSpaceOnUse">
<stop stop-color="#FF928E"/>
<stop offset="1" stop-color="#FE7062"/>
</linearGradient>
<linearGradient id="paint6_linear" x1="-10.0759" y1="210.224" x2="48.5377" y2="142.224" gradientUnits="userSpaceOnUse">
<stop stop-color="#FF928E"/>
<stop offset="1" stop-color="#FE7062"/>
</linearGradient>
<linearGradient id="paint7_linear" x1="81.6063" y1="92.5781" x2="-91.7368" y2="354.321" gradientUnits="userSpaceOnUse">
<stop stop-color="#FF928E"/>
<stop offset="1" stop-color="#FE7062"/>
</linearGradient>
<linearGradient id="paint8_linear" x1="59.3843" y1="76.6841" x2="45.8353" y2="181.837" gradientUnits="userSpaceOnUse">
<stop stop-color="#FF928E"/>
<stop offset="1" stop-color="#FE7062"/>
</linearGradient>
<linearGradient id="paint9_linear" x1="90.6588" y1="248.705" x2="140.303" y2="191.11" gradientUnits="userSpaceOnUse">
<stop stop-color="#FF928E"/>
<stop offset="1" stop-color="#FE7062"/>
</linearGradient>
<linearGradient id="paint10_linear" x1="168.312" y1="149.061" x2="21.4939" y2="370.751" gradientUnits="userSpaceOnUse">
<stop stop-color="#FF928E"/>
<stop offset="1" stop-color="#FE7062"/>
</linearGradient>
<linearGradient id="paint11_linear" x1="145.548" y1="148.415" x2="140.766" y2="211.348" gradientUnits="userSpaceOnUse">
<stop stop-color="#FF928E"/>
<stop offset="1" stop-color="#FE7062"/>
</linearGradient>
<linearGradient id="paint12_linear" x1="322.631" y1="202.235" x2="335.512" y2="239.019" gradientUnits="userSpaceOnUse">
<stop stop-color="#FEBBBA"/>
<stop offset="1" stop-color="#FF928E"/>
</linearGradient>
<linearGradient id="paint13_linear" x1="332.518" y1="225.739" x2="322.816" y2="206.178" gradientUnits="userSpaceOnUse">
<stop stop-color="#FEBBBA"/>
<stop offset="1" stop-color="#FF928E"/>
</linearGradient>
<linearGradient id="paint14_linear" x1="368.51" y1="425.574" x2="450.673" y2="514.901" gradientUnits="userSpaceOnUse">
<stop stop-color="#09005D"/>
<stop offset="1" stop-color="#1A0F91"/>
</linearGradient>
<linearGradient id="paint15_linear" x1="395.165" y1="432.212" x2="387.871" y2="432.212" gradientUnits="userSpaceOnUse">
<stop stop-color="#FEBBBA"/>
<stop offset="1" stop-color="#FF928E"/>
</linearGradient>
<linearGradient id="paint16_linear" x1="-563.334" y1="-362.407" x2="-525.898" y2="-333.746" gradientUnits="userSpaceOnUse">
<stop stop-color="#4F52FF"/>
<stop offset="1" stop-color="#4042E2"/>
</linearGradient>
<linearGradient id="paint17_linear" x1="386.933" y1="408.63" x2="469.095" y2="497.955" gradientUnits="userSpaceOnUse">
<stop stop-color="#09005D"/>
<stop offset="1" stop-color="#1A0F91"/>
</linearGradient>
<linearGradient id="paint18_linear" x1="421.453" y1="431.838" x2="415.155" y2="431.838" gradientUnits="userSpaceOnUse">
<stop stop-color="#FEBBBA"/>
<stop offset="1" stop-color="#FF928E"/>
</linearGradient>
<linearGradient id="paint19_linear" x1="-556.563" y1="-371.249" x2="-519.127" y2="-342.588" gradientUnits="userSpaceOnUse">
<stop stop-color="#4F52FF"/>
<stop offset="1" stop-color="#4042E2"/>
</linearGradient>
<linearGradient id="paint20_linear" x1="-82.853" y1="-449.831" x2="-41.4207" y2="-387.714" gradientUnits="userSpaceOnUse">
<stop stop-color="#FF928E"/>
<stop offset="1" stop-color="#FE7062"/>
</linearGradient>
<linearGradient id="paint21_linear" x1="333.631" y1="198.383" x2="346.512" y2="235.168" gradientUnits="userSpaceOnUse">
<stop stop-color="#FEBBBA"/>
<stop offset="1" stop-color="#FF928E"/>
</linearGradient>
<linearGradient id="paint22_linear" x1="-61.1697" y1="-464.291" x2="-19.7375" y2="-402.173" gradientUnits="userSpaceOnUse">
<stop stop-color="#FF928E"/>
<stop offset="1" stop-color="#FE7062"/>
</linearGradient>
<linearGradient id="paint23_linear" x1="410.481" y1="244.192" x2="391.836" y2="244.192" gradientUnits="userSpaceOnUse">
<stop stop-color="#FEBBBA"/>
<stop offset="1" stop-color="#FF928E"/>
</linearGradient>
<linearGradient id="paint24_linear" x1="387.401" y1="232.324" x2="407.907" y2="219.823" gradientUnits="userSpaceOnUse">
<stop stop-color="#FEBBBA"/>
<stop offset="1" stop-color="#FF928E"/>
</linearGradient>
<linearGradient id="paint25_linear" x1="405.461" y1="217.132" x2="378.967" y2="238.047" gradientUnits="userSpaceOnUse">
<stop stop-color="#E1473D"/>
<stop offset="1" stop-color="#E9605A"/>
</linearGradient>
<linearGradient id="paint26_linear" x1="392.786" y1="236.989" x2="411.235" y2="225.742" gradientUnits="userSpaceOnUse">
<stop stop-color="#FEBBBA"/>
<stop offset="1" stop-color="#FF928E"/>
</linearGradient>
<linearGradient id="paint27_linear" x1="426.093" y1="381.351" x2="441.266" y2="272.437" gradientUnits="userSpaceOnUse">
<stop stop-color="#FEBBBA"/>
<stop offset="1" stop-color="#FF928E"/>
</linearGradient>
<linearGradient id="paint28_linear" x1="427.898" y1="370.873" x2="440.006" y2="283.96" gradientUnits="userSpaceOnUse">
<stop stop-color="#FEBBBA"/>
<stop offset="1" stop-color="#FF928E"/>
</linearGradient>
<linearGradient id="paint29_linear" x1="62.576" y1="327.173" x2="239.271" y2="327.173" gradientUnits="userSpaceOnUse">
<stop stop-color="#09005D"/>
<stop offset="1" stop-color="#1A0F91"/>
</linearGradient>
<linearGradient id="paint30_linear" x1="165.342" y1="318.141" x2="172.68" y2="458.545" gradientUnits="userSpaceOnUse">
<stop stop-color="#FF928E"/>
<stop offset="1" stop-color="#E9605A"/>
</linearGradient>
<linearGradient id="paint31_linear" x1="232.749" y1="405.283" x2="216.813" y2="377.408" gradientUnits="userSpaceOnUse">
<stop stop-color="#FF928E"/>
<stop offset="1" stop-color="#FE7062"/>
</linearGradient>
<linearGradient id="paint32_linear" x1="207.477" y1="309.736" x2="201.104" y2="316.106" gradientUnits="userSpaceOnUse">
<stop stop-color="#FF928E"/>
<stop offset="1" stop-color="#FE7062"/>
</linearGradient>
<linearGradient id="paint33_linear" x1="35.5131" y1="413.149" x2="105.51" y2="413.149" gradientUnits="userSpaceOnUse">
<stop stop-color="#09005D"/>
<stop offset="1" stop-color="#1A0F91"/>
</linearGradient>
<linearGradient id="paint34_linear" x1="241.932" y1="413.149" x2="311.929" y2="413.149" gradientUnits="userSpaceOnUse">
<stop stop-color="#09005D"/>
<stop offset="1" stop-color="#1A0F91"/>
</linearGradient>
<linearGradient id="paint35_linear" x1="264.159" y1="405.461" x2="302.582" y2="405.461" gradientUnits="userSpaceOnUse">
<stop stop-color="#DAE3FE"/>
<stop offset="1" stop-color="#E9EFFD"/>
</linearGradient>
<linearGradient id="paint36_linear" x1="58.4266" y1="405.461" x2="96.8503" y2="405.461" gradientUnits="userSpaceOnUse">
<stop stop-color="#DAE3FE"/>
<stop offset="1" stop-color="#E9EFFD"/>
</linearGradient>
</defs>
</svg>
