<svg width="192" height="55" viewBox="0 0 192 55" fill="none" xmlns="http://www.w3.org/2000/svg">
<path d="M16.325 44.0048C25.29 44.0048 31.725 39.6048 31.725 31.1898C31.725 22.4448 24.355 20.5198 18.635 19.0898C15.06 18.1548 12.145 17.4398 12.145 15.2398C12.145 13.4248 13.96 12.5998 15.83 12.5998C18.03 12.5998 19.845 13.7548 19.845 16.2298H30.515C30.515 8.36483 25.18 3.63483 15.94 3.63483C6.865 3.63483 1.31 7.97983 1.31 15.5698C1.31 24.3148 8.405 26.0198 13.96 27.3948C17.645 28.2748 20.67 28.9898 20.67 31.4098C20.67 33.4998 18.525 34.7098 16.325 34.7098C13.905 34.7098 11.76 33.3348 11.76 30.5848H0.815C0.815 38.9998 6.92 44.0048 16.325 44.0048ZM55.8098 13.3148L54.7648 15.6248C52.3448 13.5898 49.2098 12.4348 45.6898 12.4348C36.6148 12.4348 30.1248 18.9798 30.1248 28.1648C30.1248 37.4048 36.6148 44.0048 45.6898 44.0048C49.1548 44.0048 52.2348 42.9048 54.6548 40.9248L55.5348 43.0148H63.4548V13.3148H55.8098ZM47.0648 34.9848C43.2148 34.9848 40.4098 32.0698 40.4098 28.1648C40.4098 24.3148 43.2148 21.4548 47.0648 21.4548C50.9148 21.4548 53.7198 24.3148 53.7198 28.1648C53.7198 32.0698 50.9148 34.9848 47.0648 34.9848ZM84.8159 13.8098H77.8309V11.8298C77.8309 10.2898 78.7109 9.40983 80.2509 9.40983H84.7609V1.54483H77.6109C71.3409 1.54483 68.0409 5.00983 68.0409 11.0048V13.8098H62.9809L63.0359 21.8398H67.9309V43.0148H78.1609V21.8398H84.8159V13.8098ZM113.794 27.8898C113.794 19.1998 107.194 12.3798 97.624 12.3798C88.274 12.3798 81.509 19.0898 81.509 28.1648C81.509 37.2398 88.329 44.0048 97.624 44.0048C105.049 44.0048 111.099 39.7698 113.189 33.0048H102.959C102.024 34.7648 99.989 35.8098 97.624 35.8098C94.379 35.8098 92.234 34.0498 91.574 30.6398H113.629C113.739 29.7048 113.794 28.8248 113.794 27.8898ZM97.624 20.4098C100.704 20.4098 102.849 22.0048 103.729 24.9748H91.739C92.564 22.0048 94.654 20.4098 97.624 20.4098ZM129.184 34.1048C127.039 34.1048 125.719 32.7848 125.719 30.6948V21.2348H132.924V13.3148H125.499V4.67983H123.354L110.044 18.8148V21.2348H115.489V32.3998C115.489 38.9998 119.504 43.0148 126.049 43.0148H133.089V34.1048H129.184ZM153.008 13.3148L147.123 29.7048L140.798 13.3148H129.688L141.953 40.5948C140.578 44.2798 139.423 45.3248 135.518 45.3248H132.658V54.0698H136.178C143.878 54.0698 147.508 50.8248 151.523 41.6948L164.008 13.3148H153.008ZM181.945 13.8098H174.96V11.8298C174.96 10.2898 175.84 9.40983 177.38 9.40983H181.89V1.54483H174.74C168.47 1.54483 165.17 5.00983 165.17 11.0048V13.8098H160.11L160.165 21.8398H165.06V43.0148H175.29V21.8398H181.945V13.8098ZM180.935 9.62983H191.055V0.939829H180.935V9.62983ZM180.88 43.0148H191.11V13.3148H180.88V43.0148Z" fill="#4F52FF"/>
</svg>
